<svg width="120" height="24" viewBox="0 0 120 24" xmlns="http://www.w3.org/2000/svg"><title>btn</title><defs><linearGradient x1="50%" y1="0%" x2="50%" y2="100%" id="a"><stop stop-color="#DD5B4D" offset="0%"/><stop stop-color="#C24E41" offset="100%"/></linearGradient><filter x="-50%" y="-50%" width="200%" height="200%" filterUnits="objectBoundingBox" id="b"><feOffset in="SourceAlpha" result="shadowOffsetOuter1"/><feGaussianBlur stdDeviation="1" in="shadowOffsetOuter1" result="shadowBlurOuter1"/><feColorMatrix values="0 0 0 0 0 0 0 0 0 0 0 0 0 0 0 0 0 0 0.278589221 0" in="shadowBlurOuter1" result="shadowMatrixOuter1"/><feMerge><feMergeNode in="shadowMatrixOuter1"/><feMergeNode in="SourceGraphic"/></feMerge></filter></defs><g fill="none" fill-rule="evenodd"><g><g transform="translate(-734 -23) translate(736 25)"><rect fill="url(#a)" filter="url(#b)" width="116" height="20" rx="2"/><g transform="translate(6 4)"><ellipse stroke="#fff" cx="5.904" cy="5.893" rx="5.904" ry="5.893"/><path fill="#fff" d="M5.5 0h1v2h-1z"/><path fill="#fff" d="M5.5 10h1v2h-1z"/><path d="M7.84 3.268c0-1.364-1.408-1.507-1.914-1.507-1.144 0-2.21.75-2.21 2.223 0 2.552 3.222 1.595 3.222 4.048 0 .97-.495 1.497-1.166 1.497-.572 0-1.364-.385-1.364-1.177 0-.374.176-.935.88-.968-.176-.484-.396-.627-.715-.627-.792 0-1.2.88-1.2 1.606 0 1.255 1.2 1.772 2.333 1.772 1.287 0 2.563-.66 2.563-2.43 0-2.938-3.488-2.08-3.488-4.214 0-.737.418-1.33 1.188-1.33.737 0 1.056.538 1.056 1.044 0 .308-.12.616-.32.76.144.153.276.23.474.23.396 0 .66-.34.66-.924z" fill="#fff"/></g><path d="M23.118 14v-1.434l4.136-5.108h-3.67V6.126h5.765V7.36l-4.314 5.313h4.48V14h-6.398zm12.622 0h-1.402v-.838c-.232.326-.507.57-.824.728-.317.16-.637.24-.96.24-.654 0-1.215-.265-1.683-.793-.466-.528-.7-1.265-.7-2.21 0-.967.228-1.702.683-2.205.454-.503 1.03-.755 1.724-.755.637 0 1.188.265 1.654.795V6.126h1.51V14zm-4.028-2.976c0 .61.084 1.05.252 1.322.244.394.584.59 1.02.59.348 0 .644-.147.887-.443.245-.295.366-.736.366-1.324 0-.656-.118-1.128-.354-1.416-.236-.288-.54-.432-.908-.432-.358 0-.658.142-.9.427-.24.283-.362.71-.362 1.274zm5.516-3.502V6.126h1.51v1.396h-1.51zm0 6.478V8.296h1.51V14h-1.51zm6.36-1.815l1.503.252c-.192.55-.497.97-.914 1.26-.418.288-.94.432-1.566.432-.992 0-1.726-.325-2.202-.973-.376-.52-.564-1.175-.564-1.966 0-.944.247-1.685.74-2.22.495-.535 1.12-.803 1.875-.803.848 0 1.518.28 2.008.84.49.56.725 1.42.704 2.576h-3.78c.01.448.13.796.364 1.045.233.25.523.373.87.373.236 0 .435-.063.596-.192.16-.13.283-.337.365-.623zm.085-1.526c-.01-.438-.123-.77-.338-.997-.215-.228-.476-.34-.784-.34-.33 0-.6.12-.816.36-.214.24-.32.564-.317.976h2.256zm4.79-4.534h1.36v.972c0 .4-.036.716-.107.945-.072.23-.204.434-.398.613-.193.18-.426.317-.698.413l-.268-.565c.272-.09.468-.214.588-.376.12-.162.18-.377.18-.645h-.656v-1.36zM46.414 14V6.126h1.51V14h-1.51zm5.355-3.964l-1.37-.247c.154-.552.42-.96.795-1.226.376-.265.934-.397 1.676-.397.672 0 1.173.08 1.503.24.33.158.56.36.695.606.134.245.202.695.202 1.35l-.017 1.762c0 .502.025.87.073 1.11.048.238.14.493.27.765h-1.492c-.04-.1-.088-.25-.145-.446-.026-.09-.044-.148-.055-.177-.258.25-.533.44-.827.564-.293.126-.607.19-.94.19-.587 0-1.05-.16-1.388-.48-.34-.318-.508-.72-.508-1.208 0-.322.077-.61.23-.862.155-.252.37-.445.648-.58.278-.134.678-.25 1.2-.352.706-.132 1.195-.256 1.467-.37v-.15c0-.29-.072-.497-.215-.62-.143-.124-.413-.186-.81-.186-.27 0-.48.053-.63.158-.15.106-.27.29-.364.556zm2.02 1.225c-.194.065-.5.142-.92.232-.418.09-.692.177-.82.263-.198.14-.297.317-.297.532 0 .21.08.394.238.547.157.154.358.23.6.23.273 0 .533-.088.78-.267.183-.136.303-.303.36-.5.04-.13.06-.374.06-.735v-.3zm2.937-3.738V6.126h1.51v1.396h-1.51zm1.51.774v5.527c0 .727-.048 1.24-.143 1.54-.095.298-.277.53-.548.7-.27.168-.615.252-1.034.252-.15 0-.312-.013-.486-.04-.173-.027-.36-.067-.56-.12l.262-1.29c.072.014.14.026.2.035.064.01.122.013.176.013.154 0 .28-.033.38-.1.097-.066.163-.145.195-.238s.048-.373.048-.838v-5.44h1.51zm5.763 1.74l-1.37-.247c.154-.552.42-.96.795-1.226.376-.265.934-.397 1.676-.397.672 0 1.173.08 1.503.24.33.158.56.36.695.606.134.245.202.695.202 1.35l-.017 1.762c0 .502.025.87.073 1.11.048.238.14.493.27.765h-1.492c-.04-.1-.088-.25-.145-.446-.026-.09-.044-.148-.055-.177-.258.25-.533.44-.827.564-.294.126-.607.19-.94.19-.587 0-1.05-.16-1.388-.48-.34-.318-.508-.72-.508-1.208 0-.322.077-.61.23-.862.155-.252.37-.445.648-.58.278-.134.678-.25 1.2-.352.706-.132 1.195-.256 1.467-.37v-.15c0-.29-.072-.497-.215-.62-.143-.124-.413-.186-.81-.186-.27 0-.48.053-.63.158-.15.106-.27.29-.364.556zm2.02 1.225c-.194.065-.5.142-.92.232-.418.09-.692.177-.82.263-.198.14-.297.317-.297.532 0 .21.08.394.238.547.157.154.358.23.6.23.273 0 .533-.088.78-.267.183-.136.303-.303.36-.5.04-.13.06-.374.06-.735v-.3zm5.42 2.74v-1.176l2.136-2.455c.35-.402.61-.687.78-.855-.176.01-.407.018-.694.022l-2.014.01v-1.25h4.716v1.068l-2.18 2.513-.77.833c.42-.024.68-.037.78-.037h2.336V14h-5.09zm7.233-3.964l-1.368-.247c.154-.552.42-.96.795-1.226.376-.265.934-.397 1.675-.397.674 0 1.175.08 1.504.24.33.158.562.36.696.606.134.245.2.695.2 1.35l-.015 1.762c0 .502.024.87.073 1.11.048.238.138.493.27.765H81.01c-.04-.1-.088-.25-.145-.446-.025-.09-.043-.148-.054-.177-.26.25-.534.44-.828.564-.294.126-.607.19-.94.19-.587 0-1.05-.16-1.388-.48-.34-.318-.508-.72-.508-1.208 0-.322.077-.61.23-.862.155-.252.37-.445.648-.58.278-.134.678-.25 1.2-.352.706-.132 1.195-.256 1.467-.37v-.15c0-.29-.07-.497-.214-.62-.143-.124-.413-.186-.81-.186-.27 0-.48.053-.63.158-.15.106-.272.29-.365.556zm2.02 1.225c-.192.065-.5.142-.918.232-.418.09-.692.177-.82.263-.198.14-.297.317-.297.532 0 .21.08.394.237.547.157.154.358.23.6.23.273 0 .533-.088.78-.267.183-.136.303-.303.36-.5.04-.13.06-.374.06-.735v-.3zM85.107 14h-1.51V8.296H85v.81c.238-.382.454-.635.646-.756.19-.122.41-.183.652-.183.344 0 .675.095.994.285l-.467 1.316c-.255-.165-.49-.247-.71-.247-.21 0-.39.06-.536.175-.148.116-.264.327-.348.63-.084.306-.126.943-.126 1.913V14zm3.964-3.964L87.7 9.79c.154-.552.42-.96.795-1.226.376-.265.935-.397 1.676-.397.674 0 1.175.08 1.505.24.33.158.56.36.695.606.135.245.202.695.202 1.35l-.016 1.762c0 .502.024.87.072 1.11.05.238.14.493.27.765h-1.492c-.04-.1-.087-.25-.145-.446-.024-.09-.042-.148-.052-.177-.258.25-.534.44-.828.564-.293.126-.607.19-.94.19-.587 0-1.05-.16-1.388-.48-.338-.318-.508-.72-.508-1.208 0-.322.077-.61.23-.862.155-.252.37-.445.65-.58.276-.134.676-.25 1.2-.352.704-.132 1.193-.256 1.465-.37v-.15c0-.29-.072-.497-.215-.62-.144-.124-.414-.186-.812-.186-.268 0-.478.053-.628.158-.15.106-.272.29-.365.556zm2.02 1.225c-.194.065-.5.142-.92.232-.418.09-.692.177-.82.263-.198.14-.296.317-.296.532 0 .21.078.394.236.547.158.154.358.23.602.23.272 0 .53-.088.778-.267.183-.136.303-.303.36-.5.04-.13.06-.374.06-.735v-.3zM89.456 7.6l.74-1.606h1.693l-1.477 1.606h-.956zM93.995 14V6.126h1.51v2.836c.465-.53 1.016-.795 1.654-.795.693 0 1.268.252 1.723.755.455.503.682 1.225.682 2.167 0 .973-.232 1.723-.696 2.25-.464.526-1.027.79-1.69.79-.326 0-.647-.083-.964-.245-.317-.163-.59-.404-.82-.723V14h-1.4zm1.5-2.976c0 .59.092 1.028.278 1.31.26.402.61.603 1.042.603.333 0 .617-.143.85-.427.236-.285.353-.734.353-1.346 0-.652-.118-1.122-.354-1.41-.237-.288-.54-.432-.908-.432-.362 0-.663.14-.902.42-.24.282-.36.71-.36 1.282zm6.412-.988l-1.37-.247c.154-.552.42-.96.795-1.226.376-.265.935-.397 1.676-.397.673 0 1.174.08 1.504.24.33.158.56.36.695.606.135.245.202.695.202 1.35l-.017 1.762c0 .502.024.87.072 1.11.048.238.14.493.27.765h-1.492c-.04-.1-.088-.25-.145-.446-.025-.09-.043-.148-.054-.177-.257.25-.533.44-.827.564-.293.126-.607.19-.94.19-.587 0-1.05-.16-1.388-.48-.34-.318-.51-.72-.51-1.208 0-.322.078-.61.232-.862.154-.252.37-.445.648-.58.277-.134.677-.25 1.2-.352.705-.132 1.194-.256 1.466-.37v-.15c0-.29-.07-.497-.215-.62-.142-.124-.412-.186-.81-.186-.268 0-.478.053-.628.158-.15.106-.272.29-.365.556zm2.02 1.225c-.194.065-.5.142-.92.232-.418.09-.692.177-.82.263-.198.14-.296.317-.296.532 0 .21.08.394.237.547.158.154.358.23.602.23.27 0 .53-.088.777-.267.183-.136.303-.303.36-.5.04-.13.06-.374.06-.735v-.3zm2.937-3.738V6.126h1.51v1.396h-1.51zm1.51.774v5.527c0 .727-.048 1.24-.143 1.54-.094.298-.276.53-.547.7-.27.168-.615.252-1.034.252-.15 0-.313-.013-.487-.04-.173-.027-.36-.067-.56-.12l.262-1.29c.072.014.14.026.202.035.062.01.12.013.174.013.155 0 .28-.033.38-.1.098-.066.164-.145.196-.238s.048-.373.048-.838v-5.44h1.51z" fill="#fff"/></g></g></g></svg>