<svg width="29" height="29" viewBox="0 0 29 29" xmlns="http://www.w3.org/2000/svg"><title>S + Oval 15</title><desc>Created with Sketch.</desc><g fill="none" fill-rule="evenodd"><g><g><g><g transform="translate(1.84 1.875)"><ellipse stroke="#fff" stroke-width="2" cx="12.792" cy="12.768" rx="12.792" ry="12.768"/><path d="M17.89 7.51c0-2.002-2.076-2.184-2.93-2.184-2.35 0-4.207 1.366-4.207 3.26 0 2.676 3.732 3.787 3.732 6.9 0 1.53-.874 2.367-2.094 2.367-1.164 0-1.8-.728-1.8-1.64 0-1.255 1.164-1.765 2.165-1.765-.145-.947-.965-1.2-1.602-1.2-1.274 0-2.676 1.018-2.676 2.985 0 2.22 1.784 3.077 3.86 3.077 2.64 0 5.116-1.44 5.116-4.498 0-3.933-4.097-4.297-4.097-6.973 0-1.094.674-1.64 1.676-1.64 1 0 1.347.564 1.347 1.202 0 .6-.33 1.274-.82 1.566.236.273.51.382.837.382.91 0 1.493-.783 1.493-1.84z" fill="#fff"/></g></g></g></g></g></svg>