<svg xmlns="http://www.w3.org/2000/svg" width="78" height="62"><title>dashboard</title><desc>Created with Sketch.</desc><g fill="none"><g><g><g><g><path fill="#969696" d="M70.2 0H7.8C3.51 0 0 3.487 0 7.75v46.5C0 58.513 3.51 62 7.8 62h62.4c4.29 0 7.8-3.487 7.8-7.75V7.75C78 3.487 74.49 0 70.2 0zM17.55 6.78c1.615 0 2.925 1.303 2.925 2.907 0 1.605-1.31 2.907-2.925 2.907-1.615 0-2.925-1.302-2.925-2.906 0-1.605 1.31-2.907 2.925-2.907zM6.825 9.688c0-1.604 1.31-2.906 2.925-2.906 1.615 0 2.925 1.303 2.925 2.907 0 1.605-1.31 2.907-2.925 2.907-1.615 0-2.925-1.302-2.925-2.906zM70.2 54.25H7.8V19.375h62.4V54.25zm0-42.625H23.4V7.75h46.874l-.074 3.875z"/><path fill="#9E9E9E" d="M37.73 34.917H28.2c-.907 0-.986.707-.986 1.583s.08 1.583.986 1.583h9.53c.905 0 .984-.707.984-1.583s-.08-1.583-.985-1.583zm3.284 7.916H28.2c-.907 0-.986.708-.986 1.584 0 .875.08 1.583.986 1.583h12.814c.907 0 .986-.708.986-1.583 0-.876-.08-1.584-.986-1.584zM28.2 30.167h12.814c.907 0 .986-.708.986-1.584 0-.875-.08-1.583-.986-1.583H28.2c-.907 0-.986.708-.986 1.583 0 .876.08 1.584.986 1.584zm-5.257 4.75h-2.957c-.907 0-.986.707-.986 1.583s.08 1.583.986 1.583h2.957c.907 0 .986-.707.986-1.583s-.08-1.583-.987-1.583zm0 7.916h-2.957c-.907 0-.986.708-.986 1.584 0 .875.08 1.583.986 1.583h2.957c.907 0 .986-.708.986-1.583 0-.876-.08-1.584-.987-1.584zm0-15.833h-2.957c-.907 0-.986.708-.986 1.583 0 .876.08 1.584.986 1.584h2.957c.907 0 .986-.708.986-1.584 0-.875-.08-1.583-.987-1.583z"/></g></g></g></g></g></svg>