<svg xmlns="http://www.w3.org/2000/svg" width="76" height="62"><title>heart</title><desc>Created with Sketch.</desc><g fill="none"><g fill="#959595"><g><g><path d="M69.77 5.1c-7.388-6.8-19.366-6.8-26.753 0l-5.015 4.612-5.02-4.612c-7.387-6.8-19.36-6.8-26.75 0-8.31 7.646-8.31 20.02 0 27.666L38.003 62 69.77 32.766c8.307-7.646 8.307-20.024 0-27.666zm-4.71 23.12L38.002 53.54 10.94 28.22c-2.727-2.51-3.783-5.79-3.783-9.276 0-3.486.61-6.348 3.34-8.856 2.408-2.22 5.647-3.442 9.115-3.442 3.464 0 6.703 2.11 9.11 4.333l9.28 8.084 9.274-8.09c2.412-2.223 5.647-4.332 9.115-4.332 3.47 0 6.708 1.222 9.116 3.442 2.73 2.507 3.336 5.37 3.336 8.856 0 3.486-1.05 6.77-3.782 9.28z"/></g></g></g></g></svg>