<svg width="82" height="19" viewBox="0 0 82 19" xmlns="http://www.w3.org/2000/svg"><title>Sharee.io</title><desc>Created with Sketch.</desc><g fill="none" fill-rule="evenodd"><g fill="#DD5B4D"><path d="M35.784 13.816c-.362 1.654-.953 2.504-1.704 2.504-1.032 0-1.08-1.536-1.08-2.16V6h-2.4v1.152c-.456-.984-1.464-1.272-2.232-1.272-3.264 0-4.56 3.816-4.56 6.768 0 .675.06 1.28.17 1.815-.38 1.287-.907 1.857-1.538 1.857-1.056 0-1.08-1.56-1.08-2.064 0-1.248.144-2.952.144-4.08 0-1.848-.384-4.296-3.288-4.296-.816 0-1.944.192-2.88 1.944V1.2l-2.4.336V18h2.4v-7.68c.456-1.872 1.176-2.616 2.16-2.616.816 0 1.536.528 1.536 2.592 0 .648-.072 3.576-.072 4.176 0 1.944.792 3.672 2.808 3.672.78 0 1.894-.26 2.69-2.242.787 1.6 2.168 2.242 3.454 2.242 1.512 0 2.64-1.032 3.12-2.28.24 1.2.864 2.28 2.328 2.28.716 0 1.664-.2 2.424-1.576V18h2.4V9.168c.552-.576 1.248-1.2 1.968-1.2.696 0 .792.6 1.344.6.384 0 1.104-.288 1.104-1.248 0-.792-.504-1.44-1.584-1.44-1.368 0-2.088 1.008-2.832 2.136V6h-2.4v7.816zM10.56 3.312C10.56.336 7.488.024 6.384.024 3.888.024 1.56 1.656 1.56 4.872c0 5.568 7.032 3.48 7.032 8.832 0 2.112-1.08 3.264-2.544 3.264-1.248 0-2.976-.84-2.976-2.568 0-.816.384-2.04 1.92-2.112-.384-1.056-.864-1.368-1.56-1.368-1.728 0-2.616 1.92-2.616 3.504 0 2.736 2.616 3.864 5.088 3.864 2.808 0 5.592-1.44 5.592-5.304 0-6.408-7.608-4.536-7.608-9.192C3.888 2.184 4.8.888 6.48.888c1.608 0 2.304 1.176 2.304 2.28 0 .672-.264 1.344-.696 1.656.312.336.6.504 1.032.504.864 0 1.44-.744 1.44-2.016zM51.8 15.097c-1.083 1.725-2.924 3.047-4.872 3.047-2.208 0-4.344-1.44-4.344-5.544 0-2.688 1.128-6.72 4.584-6.72 1.584 0 3.192.576 3.192 3.12 0 2.232-1.968 3.84-5.208 4.2.24 2.544 1.392 3.12 2.76 3.12 1.414 0 2.765-.65 3.62-2.266-.075-.443-.116-.927-.116-1.454 0-2.688 1.128-6.72 4.584-6.72 1.584 0 3.192.576 3.192 3.12 0 2.232-1.968 3.84-5.208 4.2.24 2.544 1.392 3.12 2.76 3.12 1.032 0 1.992-.312 2.592-1.176.024.216.048.432.048.6 0 1.44-1.608 2.4-3.384 2.4-1.64 0-3.433-.858-4.2-3.047zM28.512 16.32c-1.392 0-2.184-1.104-2.184-3.84 0-2.232.792-5.28 2.856-5.28.72 0 1.2.528 1.416 1.032v5.472c0 1.464-1.104 2.616-2.088 2.616zm16.616-4.056c0-2.352.816-5.208 2.496-5.208.768 0 1.2.504 1.2 1.704 0 1.8-1.44 3.144-3.696 3.504zm8.832 0c0-2.352.816-5.208 2.496-5.208.768 0 1.2.504 1.2 1.704 0 1.8-1.44 3.144-3.696 3.504zm17.67 3.504c-.8 2.105-1.953 2.376-2.79 2.376-2.208 0-2.76-1.92-2.76-3.48V6h2.4v8.16c0 .624.048 2.16 1.08 2.16.672 0 1.215-.68 1.582-2.007-.107-.524-.166-1.11-.166-1.76 0-2.81 1.08-6.673 4.68-6.673 2.256 0 3.264 1.344 3.672 3.168.912 0 1.2-.72 1.368-1.2h.696c-.264 1.056-.816 2.328-1.872 2.856.048.384.048.744.048 1.128 0 3.936-1.512 6.312-4.104 6.312-1.443 0-2.986-.67-3.834-2.376zm-10.782.768c0 .888.696 1.584 1.584 1.584.864 0 1.608-.696 1.608-1.584 0-.864-.744-1.608-1.608-1.608-.888 0-1.584.744-1.584 1.608zm4.8-13.992c0 .888.696 1.584 1.584 1.584.864 0 1.608-.696 1.608-1.584 0-.864-.744-1.608-1.608-1.608-.888 0-1.584.744-1.584 1.608zM75.896 16.32c-1.08 0-2.328-.744-2.328-3.864 0-2.352.72-5.256 2.712-5.256.672 0 1.272.336 1.656 1.272-.528.072-.888.432-.888 1.08 0 .912.408 1.44 1.296 1.44 0 .168.024.336.024.504 0 3.048-.792 4.824-2.472 4.824z"/></g></g></svg>