<svg width="90" height="34" viewBox="0 0 90 34" xmlns="http://www.w3.org/2000/svg"><title>piggybank_logo 3</title><desc>Created with Sketch.</desc><g fill="none" fill-rule="evenodd"><g><g transform="translate(-105 -372) translate(103 360)"><g fill="#fff"><g><path d="M3.215 23.45c.044-.017.092-.03.137-.04l4.788-1.26c.54-1.02 1.107-1.904 1.998-2.865-.403-.48-.995-1.22-1.524-2.035-1.003-1.547-1.27-2.696-1.413-4.276-.034-.405.254-.768.655-.826.002 0 1.677-.32 5.506.307 1.985.325 3.872 1.28 4.605 1.685 2.628-.894 5.14-1.33 7.667-1.33 10.554 0 19.14 7.063 19.14 15.744 0 5.293-3.153 10.14-8.473 13.073l.048.15c.524 1.62-.34 3.378-1.924 3.92-1.56.53-3.31-.36-3.838-1.93-3.61.79-7.507.692-11.03-.28l-.057.195c-.384 1.306-1.583 2.218-2.915 2.218-.296 0-.593-.044-.878-.13-1.602-.493-2.515-2.226-2.038-3.863l.26-.9c-3.215-2.125-8.944-7.596-9.204-7.845-1.15-1.125-1.817-2.525-2.306-4.836-.433-2.04-.45-4.39.795-4.875zm.694 4.557c.418 1.988.962 3.163 1.87 4.05.066.063 6.503 6.212 9.43 7.948.3.18.442.54.344.874l-.424 1.454c-.244.837.215 1.72 1.023 1.967.793.243 1.645-.24 1.883-1.05l.27-.928c.057-.198.19-.363.37-.46.113-.062.236-.093.36-.093.077 0 .155.012.228.033 3.687 1.16 7.855 1.27 11.642.314.388-.098.787.12.91.503l.205.632c.26.798 1.132 1.265 1.91.994.8-.274 1.234-1.17.965-1.998l-.247-.76c-.115-.358.045-.748.38-.92 5.146-2.63 8.22-7.122 8.22-12.016 0-7.838-7.903-14.213-17.617-14.213-2.458 0-4.91.442-7.49 1.356-.217.078-.453.05-.647-.066-.023-.012-2.18-1.307-4.378-1.665-2.106-.345-3.55-.368-4.307-.348.143.985.41 1.762 1.082 2.8.814 1.254 1.834 2.368 1.844 2.378.28.305.27.778-.027 1.067-1.152 1.127-1.742 2.06-2.372 3.29-.097.194-.274.336-.483.39l-5.01 1.323c-.136.292-.31 1.35.067 3.142z"/></g></g><ellipse fill="#344D5B" cx="48.682" cy="28.326" rx="21.825" ry="14.284"/><ellipse stroke="#fff" cx="13.278" cy="22.758" rx=".97" ry=".968"/><g><g><path d="M84.475 37.348c1.553-.305 4.13-7.01.903-5.19-3.23 1.822 2.514 6.13 5.368-.045" stroke="#DD5B4D" stroke-linecap="round"/><path d="M77.866 36.222c-1.272 1.357-2.972 2.285-4.747 2.285-2.61 0-5.132-1.698-5.132-6.537 0-3.17 1.332-7.924 5.415-7.924 1.87 0 3.77.68 3.77 3.68 0 2.63-2.324 4.527-6.152 4.95.285 3 1.646 3.68 3.262 3.68 1.104 0 2.177-.335 3.07-1.114-.365-.88-.58-1.963-.58-3.272 0-3.17 1.333-7.924 5.415-7.924 1.87 0 3.77.68 3.77 3.68 0 2.63-2.324 4.527-6.15 4.95.282 3 1.643 3.68 3.26 3.68 1.218 0 2.352-.368 3.06-1.387.03.254.057.51.057.707 0 1.698-1.9 2.83-3.997 2.83-1.568 0-3.255-.663-4.32-2.285zm-16.62-1.427c-.413 1.034-.956 1.56-1.6 1.56-1.22 0-1.276-1.81-1.276-2.546v-9.623h-2.835v1.358c-.538-1.16-1.73-1.5-2.636-1.5-3.857 0-5.388 4.5-5.388 7.98 0 1.1.137 2.04.375 2.83-.42 1.034-.957 1.5-1.578 1.5-1.25 0-1.277-1.838-1.277-2.433 0-1.47.17-3.48.17-4.81 0-2.18-.454-5.066-3.884-5.066-.965 0-2.297.226-3.403 2.292v-7.81l-2.835.395v19.414h2.835V29.28c.54-2.206 1.39-3.084 2.552-3.084.963 0 1.813.623 1.813 3.057 0 .764-.085 4.217-.085 4.924 0 2.292.935 4.33 3.317 4.33.864 0 2.072-.268 2.995-2.223.953 1.58 2.45 2.223 3.85 2.223 1.786 0 3.12-1.217 3.686-2.688.283 1.414 1.02 2.687 2.75 2.687.72 0 1.64-.17 2.45-1.224v1.054h2.836V27.923c.652-.68 1.474-1.415 2.324-1.415.823 0 .936.707 1.588.707.454 0 1.304-.34 1.304-1.47 0-.935-.595-1.7-1.87-1.7-1.617 0-2.467 1.19-3.346 2.52v-2.378h-2.835v10.608zM32.69 21.017c0-3.51-3.63-3.877-4.933-3.877-2.948 0-5.698 1.925-5.698 5.717 0 6.566 8.306 4.103 8.306 10.414 0 2.492-1.276 3.85-3.005 3.85-1.474 0-3.515-.99-3.515-3.028 0-.962.453-2.405 2.268-2.49-.453-1.245-1.02-1.613-1.842-1.613-2.04 0-3.09 2.263-3.09 4.13 0 3.227 3.09 4.557 6.01 4.557 3.317 0 6.605-1.698 6.605-6.255 0-7.556-8.986-5.348-8.986-10.84 0-1.895 1.077-3.423 3.06-3.423 1.9 0 2.723 1.386 2.723 2.688 0 .792-.312 1.584-.822 1.952.368.397.708.595 1.22.595 1.02 0 1.7-.878 1.7-2.378zm20.38 15.34c-1.643 0-2.58-1.303-2.58-4.53 0-2.63.937-6.225 3.375-6.225.85 0 1.417.623 1.672 1.217v6.45c0 1.728-1.304 3.086-2.466 3.086zm17.925-4.784c0-2.773.964-6.14 2.948-6.14.91 0 1.42.594 1.42 2.01 0 2.12-1.702 3.706-4.367 4.13zm8.784 0c0-2.773.964-6.14 2.95-6.14.906 0 1.416.594 1.416 2.01 0 2.12-1.7 3.706-4.366 4.13z" fill="#DD5B4D"/></g></g></g></g></g></svg>