<?xml version="1.0" encoding="UTF-8" standalone="no"?>
<svg width="87px" height="76px" viewBox="0 0 87 76" version="1.1" xmlns="http://www.w3.org/2000/svg" xmlns:xlink="http://www.w3.org/1999/xlink" xmlns:sketch="http://www.bohemiancoding.com/sketch/ns">
    <!-- Generator: Sketch 3.2.2 (9983) - http://www.bohemiancoding.com/sketch -->
    <title>share</title>
    <desc>Created with Sketch.</desc>
    <defs></defs>
    <g id="Page-1" stroke="none" stroke-width="1" fill="none" fill-rule="evenodd" sketch:type="MSPage">
        <g id="sharee_partner_icons" sketch:type="MSArtboardGroup" transform="translate(-213.000000, -60.000000)">
            <g id="share" sketch:type="MSLayerGroup" transform="translate(213.000000, 60.000000)">
                <g id="share-alternitive" transform="translate(26.000000, 33.000000)" fill="#959595" sketch:type="MSShapeGroup">
                    <path d="M15.3125,27.95 L19.6875,27.95 L19.6875,8.6 L24.0625,8.6 L17.5,0 L10.9375,8.6 L15.3125,8.6 L15.3125,27.95 L15.3125,27.95 Z M32.8125,15.05 L26.25,15.05 L26.25,19.35 L30.625,19.35 L30.625,38.7 L4.375,38.7 L4.375,19.35 L8.75,19.35 L8.75,15.05 L2.1875,15.05 C0.9778125,15.05 0,16.01105 0,17.2 L0,40.85 C0,42.0368 0.9778125,43 2.1875,43 L32.8125,43 C34.0221875,43 35,42.0368 35,40.85 L35,17.2 C35,16.0132 34.0221875,15.05 32.8125,15.05 L32.8125,15.05 Z" id="Shape"></path>
                </g>
                <g id="fb" transform="translate(0.000000, 12.000000)" sketch:type="MSShapeGroup">
                    <path d="M21,19.6875 C21,20.412 20.412,21 19.6875,21 L1.3125,21 C0.588,21 0,20.412 0,19.6875 L0,1.3125 C0,0.588 0.588,0 1.3125,0 L19.6875,0 C20.412,0 21,0.588 21,1.3125 L21,19.6875 L21,19.6875 Z" id="Shape" fill="#3B5998"></path>
                    <path d="M14.4375,21 L14.4375,13.125 L17.0625,13.125 L17.71875,9.84375 L14.4375,9.84375 L14.4375,8.53125 C14.4375,7.21875 15.0950625,6.5625 16.40625,6.5625 L17.71875,6.5625 L17.71875,3.28125 L15.09375,3.28125 C12.6820312,3.28125 11.15625,5.17190625 11.15625,7.875 L11.15625,9.84375 L8.53125,9.84375 L8.53125,13.125 L11.15625,13.125 L11.15625,21 L14.4375,21 L14.4375,21 Z" id="f" fill="#FFFFFF"></path>
                </g>
                <g id="twitter" transform="translate(33.000000, 0.000000)" sketch:type="MSShapeGroup">
                    <path d="M21,19.6875 C21,20.412 20.412,21 19.6875,21 L1.3125,21 C0.588,21 0,20.412 0,19.6875 L0,1.3125 C0,0.588 0.588,0 1.3125,0 L19.6875,0 C20.412,0 21,0.588 21,1.3125 L21,19.6875 L21,19.6875 Z" id="Shape" fill="#55ACEE"></path>
                    <path d="M17.0539687,6.4929375 C16.5709687,6.70425 16.0531875,6.84534375 15.5071875,6.90965625 C16.065,6.58284375 16.4915625,6.06375 16.692375,5.4455625 C16.172625,5.74809375 15.5964375,5.96859375 14.9828438,6.087375 C14.4919687,5.57221875 13.7924062,5.25 13.0186875,5.25 C11.531625,5.25 10.3280625,6.43584375 10.3280625,7.8999375 C10.3280625,8.106 10.3516875,8.31009375 10.3963125,8.505 C8.16046875,8.392125 6.17728125,7.33753125 4.8496875,5.73496875 C4.6186875,6.12675 4.4848125,6.58153125 4.4848125,7.06846875 C4.4848125,7.9865625 4.96125,8.7976875 5.6818125,9.27346875 C5.24146875,9.25903125 4.8260625,9.14025 4.4638125,8.94140625 C4.46315625,8.9525625 4.46315625,8.96371875 4.46315625,8.97553125 C4.46315625,10.2585 5.39109375,11.3308125 6.62221875,11.5742813 C6.397125,11.6333437 6.1595625,11.6674687 5.9128125,11.6674687 C5.7395625,11.6674687 5.5715625,11.6517187 5.4075,11.6202187 C5.74875,12.6728438 6.7423125,13.4386875 7.919625,13.461 C7.0021875,14.1710625 5.840625,14.595 4.57996875,14.595 C4.36340625,14.595 4.14815625,14.5831875 3.9375,14.55825 C5.1279375,15.3096562 6.54346875,15.7480312 8.06334375,15.7480312 C13.012125,15.7480312 15.7191563,11.7094687 15.7191563,8.2070625 C15.7191563,8.09353125 15.715875,7.977375 15.7112812,7.86515625 C16.2362812,7.4904375 16.6936875,7.02384375 17.0539687,6.4929375 L17.0539687,6.4929375 Z" id="Shape" fill="#FFFFFF"></path>
                </g>
                <g id="li" transform="translate(66.000000, 12.000000)" sketch:type="MSShapeGroup">
                    <path d="M21,19.6875 C21,20.412 20.412,21 19.6875,21 L1.3125,21 C0.588,21 0,20.412 0,19.6875 L0,1.3125 C0,0.588 0.588,0 1.3125,0 L19.6875,0 C20.412,0 21,0.588 21,1.3125 L21,19.6875 L21,19.6875 Z" id="Shape" fill="#007BB5"></path>
                    <g id="Group" transform="translate(4.593750, 3.937500)" fill="#FFFFFF">
                        <rect id="Rectangle-path" x="0" y="3.28125" width="2.625" height="9.1875"></rect>
                        <path d="M8.85871875,3.28125 C7.027125,3.28125 6.712125,3.9493125 6.5625,4.59375 L6.5625,3.28125 L3.9375,3.28125 L3.9375,12.46875 L6.5625,12.46875 L6.5625,7.21875 C6.5625,6.36759375 7.02384375,5.90625 7.875,5.90625 C8.7058125,5.90625 9.1875,6.35775 9.1875,7.21875 L9.1875,12.46875 L11.8125,12.46875 L11.8125,7.875 C11.8125,5.25 11.4705937,3.28125 8.85871875,3.28125 L8.85871875,3.28125 Z" id="Shape"></path>
                        <circle id="Oval" cx="1.3125" cy="1.3125" r="1.3125"></circle>
                    </g>
                </g>
            </g>
        </g>
    </g>
</svg>