<svg width="149" height="110" viewBox="0 0 149 110" version="1.1" xmlns="http://www.w3.org/2000/svg" xmlns:xlink="http://www.w3.org/1999/xlink"><title>new_campaign_icon</title><desc>Created with Sketch.</desc><defs><circle id="a" cx="50" cy="50" r="50"/><filter x="-50%" y="-50%" width="200%" height="200%" filterUnits="objectBoundingBox" id="c"><feOffset dx="0" dy="2" in="SourceAlpha" result="shadowOffsetOuter1"/><feGaussianBlur stdDeviation="1" in="shadowOffsetOuter1" result="shadowBlurOuter1"/><feColorMatrix values="0 0 0 0 0 0 0 0 0 0 0 0 0 0 0 0 0 0 0.0727383379 0" in="shadowBlurOuter1" type="matrix" result="shadowMatrixOuter1"/><feMerge><feMergeNode in="shadowMatrixOuter1"/><feMergeNode in="SourceGraphic"/></feMerge></filter><filter x="-50%" y="-50%" width="200%" height="200%" filterUnits="objectBoundingBox" id="d"><feOffset dx="0" dy="1" in="SourceAlpha" result="shadowOffsetOuter1"/><feGaussianBlur stdDeviation="1" in="shadowOffsetOuter1" result="shadowBlurOuter1"/><feColorMatrix values="0 0 0 0 0 0 0 0 0 0 0 0 0 0 0 0 0 0 0.7 0" in="shadowBlurOuter1" type="matrix" result="shadowMatrixOuter1"/><feMerge><feMergeNode in="shadowMatrixOuter1"/><feMergeNode in="SourceGraphic"/></feMerge></filter></defs><g stroke="none" stroke-width="1" fill="none" fill-rule="evenodd"><g><g><g><g><path d="M70.2 48H7.8C3.51 48 0 51.487 0 55.75v46.5c0 4.263 3.51 7.75 7.8 7.75h62.4c4.29 0 7.8-3.487 7.8-7.75v-46.5c0-4.263-3.51-7.75-7.8-7.75zm-52.65 6.78c1.615 0 2.925 1.303 2.925 2.907 0 1.605-1.31 2.907-2.925 2.907-1.615 0-2.925-1.302-2.925-2.907 0-1.604 1.31-2.906 2.925-2.906zM6.825 57.688c0-1.604 1.31-2.906 2.925-2.906 1.615 0 2.925 1.303 2.925 2.907 0 1.605-1.31 2.907-2.925 2.907-1.615 0-2.925-1.302-2.925-2.907zM70.2 102.25H7.8V67.375h62.4v34.875zm0-42.625H23.4V55.75h46.874l-.074 3.875z" fill="#969696"/><path d="M37.73 82.917H28.2c-.907 0-.986.707-.986 1.583s.08 1.583.986 1.583h9.53c.905 0 .984-.707.984-1.583s-.08-1.583-.985-1.583zm22-8H50.2c-.907 0-.986.707-.986 1.583s.08 1.583.986 1.583h9.53c.905 0 .984-.707.984-1.583s-.08-1.583-.985-1.583zM41.013 90.833H28.2c-.907 0-.986.708-.986 1.584 0 .875.08 1.583.986 1.583h12.814c.907 0 .986-.708.986-1.583 0-.876-.08-1.584-.986-1.584zM28.2 78.167h12.814c.907 0 .986-.708.986-1.584 0-.875-.08-1.583-.986-1.583H28.2c-.907 0-.986.708-.986 1.583 0 .876.08 1.584.986 1.584zm-5.257 4.75h-2.957c-.907 0-.986.707-.986 1.583s.08 1.583.986 1.583h2.957c.907 0 .986-.707.986-1.583s-.08-1.583-.987-1.583zm0 7.916h-2.957c-.907 0-.986.708-.986 1.584 0 .875.08 1.583.986 1.583h2.957c.907 0 .986-.708.986-1.583 0-.876-.08-1.584-.987-1.584zm0-15.833h-2.957c-.907 0-.986.708-.986 1.583 0 .876.08 1.584.986 1.584h2.957c.907 0 .986-.708.986-1.584 0-.875-.08-1.583-.987-1.583z" fill="#9E9E9E"/></g><g transform="translate(49 0)"><mask id="b" fill="#fff"><use xlink:href="#a"/></mask><use fill="#fff" xlink:href="#a"/><g mask="url(#b)"><g stroke="none" stroke-width="1" fill="none" transform="translate(-45 34)"><rect fill="#4AB19D" filter="url(#c)" x="0" y="0" width="138" height="40" rx="2"/><path d="M30.47 26h-1.42l-5.852-8.987h-.06c.08 1.055.12 2.022.12 2.9V26h-1.15V15.292h1.405l5.837 8.95h.06c-.01-.132-.033-.555-.067-1.27-.034-.716-.046-1.227-.037-1.535v-6.145h1.165V26zm9.69-4.02c0 1.308-.33 2.33-.988 3.064-.66.735-1.57 1.102-2.732 1.102-.718 0-1.355-.168-1.91-.505-.558-.336-.988-.82-1.29-1.45-.303-.63-.455-1.366-.455-2.21 0-1.31.328-2.33.982-3.06.654-.73 1.562-1.094 2.724-1.094 1.125 0 2.017.374 2.678 1.12.662.748.993 1.76.993 3.033zm-6.115 0c0 1.024.205 1.806.615 2.343.41.537 1.014.805 1.81.805.795 0 1.4-.267 1.812-.802.413-.534.62-1.317.62-2.347 0-1.022-.207-1.797-.62-2.326-.412-.53-1.02-.795-1.827-.795-.796 0-1.397.26-1.802.783-.405.522-.608 1.3-.608 2.336zM43.75 26l-3.047-8.027h1.304l1.728 4.76c.39 1.114.62 1.836.69 2.168h.057c.054-.257.224-.793.51-1.606.285-.813.926-2.587 1.922-5.32h1.304L45.17 26h-1.42zm10.693 0l-.242-1.143h-.057c-.4.503-.8.844-1.198 1.022-.398.177-.894.266-1.49.266-.796 0-1.42-.205-1.872-.615-.45-.41-.677-.992-.677-1.75 0-1.62 1.296-2.47 3.89-2.548l1.36-.044v-.498c0-.63-.134-1.095-.405-1.395-.27-.3-.703-.45-1.3-.45-.668 0-1.425.204-2.27.614l-.373-.93c.395-.216.83-.384 1.3-.506.47-.122.944-.183 1.417-.183.957 0 1.666.213 2.128.638.46.425.692 1.106.692 2.043V26h-.9zm-2.746-.857c.756 0 1.35-.207 1.783-.622.432-.415.648-.996.648-1.743v-.725l-1.216.052c-.966.034-1.663.184-2.09.45-.428.266-.642.68-.642 1.24 0 .44.133.775.4 1.005.266.228.638.343 1.117.343zm-.286-8.415c.235-.303.488-.67.76-1.1.27-.43.484-.802.64-1.12h1.48v.154c-.216.317-.535.708-.96 1.172-.425.464-.794.823-1.106 1.077h-.813v-.182zm11.537 5.163c.21-.297.53-.687.96-1.17l2.592-2.747h1.442l-3.252 3.42L68.17 26h-1.473l-2.835-3.794-.915.79V26h-1.202V14.604h1.202v6.042c0 .27-.02.684-.06 1.245h.06zM74.555 26l-.24-1.143h-.06c-.4.503-.8.844-1.197 1.022-.398.177-.895.266-1.49.266-.797 0-1.42-.205-1.872-.615-.452-.41-.678-.992-.678-1.75 0-1.62 1.297-2.47 3.89-2.548l1.362-.044v-.498c0-.63-.136-1.095-.407-1.395-.27-.3-.704-.45-1.3-.45-.67 0-1.426.204-2.27.614l-.374-.93c.395-.216.828-.384 1.3-.506.47-.122.943-.183 1.416-.183.958 0 1.667.213 2.128.638.462.425.692 1.106.692 2.043V26h-.9zm-2.746-.857c.756 0 1.35-.207 1.782-.622.432-.415.648-.996.648-1.743v-.725l-1.215.052c-.967.034-1.664.184-2.09.45-.43.266-.642.68-.642 1.24 0 .44.133.775.4 1.005.265.228.637.343 1.116.343zM88.192 26v-5.222c0-.64-.137-1.12-.41-1.44-.273-.32-.698-.48-1.274-.48-.758 0-1.317.218-1.68.653-.36.435-.54 1.104-.54 2.008V26h-1.217v-5.222c0-.64-.136-1.12-.41-1.44-.273-.32-.7-.48-1.28-.48-.763 0-1.32.23-1.675.686-.354.456-.53 1.205-.53 2.245V26H77.96v-8.027h.99l.198 1.098h.058c.23-.39.553-.695.97-.914.418-.22.886-.33 1.403-.33 1.254 0 2.075.454 2.46 1.362h.06c.238-.42.585-.75 1.04-.996.453-.244.97-.366 1.552-.366.908 0 1.588.233 2.04.7.45.466.677 1.212.677 2.237V26h-1.217zm7.456.146c-.523 0-1-.096-1.433-.29-.432-.192-.794-.488-1.087-.89h-.088c.058.47.088.914.088 1.334v3.304h-1.216v-11.63h.99l.167 1.097h.06c.312-.438.676-.756 1.09-.95.416-.196.892-.294 1.43-.294 1.064 0 1.885.364 2.464 1.09.578.73.868 1.75.868 3.063 0 1.317-.294 2.342-.883 3.072-.59.73-1.406 1.094-2.45 1.094zm-.177-7.287c-.82 0-1.413.226-1.78.68-.366.454-.554 1.177-.563 2.168v.27c0 1.13.188 1.936.564 2.422.376.486.98.728 1.81.728.692 0 1.235-.28 1.628-.842.393-.56.59-1.335.59-2.322 0-1-.197-1.768-.59-2.303-.393-.534-.946-.8-1.66-.8zm10.57 7.14l-.242-1.143h-.058c-.4.503-.8.844-1.198 1.022-.398.177-.894.266-1.49.266-.796 0-1.42-.205-1.87-.615-.453-.41-.68-.992-.68-1.75 0-1.62 1.298-2.47 3.89-2.548l1.363-.044v-.498c0-.63-.136-1.095-.407-1.395-.27-.3-.704-.45-1.3-.45-.67 0-1.426.204-2.27.614l-.374-.93c.396-.216.83-.384 1.3-.506.47-.122.944-.183 1.417-.183.957 0 1.667.213 2.128.638.462.425.693 1.106.693 2.043V26h-.9zm-2.747-.857c.756 0 1.35-.207 1.783-.622.43-.415.647-.996.647-1.743v-.725l-1.216.052c-.965.034-1.662.184-2.09.45-.427.266-.64.68-.64 1.24 0 .44.133.775.4 1.005.265.228.637.343 1.116.343zM114.94 26v-5.193c0-.654-.148-1.142-.446-1.465-.297-.322-.764-.483-1.4-.483-.838 0-1.454.226-1.844.68-.39.454-.586 1.204-.586 2.25V26h-1.216v-8.027h.99l.197 1.098h.058c.25-.394.598-.7 1.047-.918.45-.217.95-.326 1.502-.326.967 0 1.694.233 2.183.7.488.466.732 1.212.732 2.237V26h-1.216zm-4.59-11.492h.84c.558.362 1.092.823 1.605 1.385.635-.635 1.174-1.097 1.62-1.385h.87v.183l-.483.5c-.703.722-1.167 1.296-1.392 1.72h-1.215c-.113-.2-.293-.453-.542-.76-.25-.31-.684-.795-1.304-1.46v-.182z" fill="#fff"/></g><path d="M122.49 47s-2.22-1.7-3-3c-.78-1.3-2.26-2.96-2-4 .26-1.04 1.22-1.37 2-.588.78.78 1.307 2.472 1.828 2.212.52-.26.13-2.733-.39-4.164-.52-1.432-1.064-4.46 0-4.46 1.063 0 1.063 1 1.563 2.5s.11 3.5.5 3.5.54-.35.54-1c0-.177.035-.326.105-.45.19-.332.634-.48 1.356-.48.992 0 .5 1.93 1 1.93s.5.04.5-1 .464-.93 1.464-.93.516 1.93 1.037 1.93c.52 0 0-1 .5-1s1 .158 1 2.5.28 2.46-.5 3.5l-1.5 2s0 1-.536 1-.813-1-1.463-1c-.65 0-1 1-1 1h-3z" stroke="#000" stroke-width="1" fill="#fff" filter="url(#d)" transform="translate(-45 34)"/><path d="M83.49 79v-4h-1v4h1zM80.49 78c0 .27.233 1 .5 1 .277 0 .5-.725.5-1v-2c0-.27-.23-1-.5-1-.276 0-.5.725-.5 1v2zM78.49 78c0 .27.233 1 .5 1 .277 0 .5-.725.5-1v-2c0-.27-.23-1-.5-1-.276 0-.5.725-.5 1v2z" stroke="none" fill="#000"/></g></g></g></g></g></g></svg>