<?xml version="1.0" encoding="UTF-8" standalone="no"?>
<svg width="154px" height="76px" viewBox="0 0 154 76" version="1.1" xmlns="http://www.w3.org/2000/svg" xmlns:xlink="http://www.w3.org/1999/xlink" xmlns:sketch="http://www.bohemiancoding.com/sketch/ns">
    <!-- Generator: Sketch 3.2.2 (9983) - http://www.bohemiancoding.com/sketch -->
    <title>%</title>
    <desc>Created with Sketch.</desc>
    <defs></defs>
    <g id="Page-1" stroke="none" stroke-width="1" fill="none" fill-rule="evenodd" sketch:type="MSPage">
        <g id="sharee_partner_icons" sketch:type="MSArtboardGroup" transform="translate(-179.000000, -380.000000)">
            <g id="%" sketch:type="MSLayerGroup" transform="translate(179.000000, 380.000000)">
                <rect id="Rectangle-6" fill="#FFFFFF" sketch:type="MSShapeGroup" x="0" y="0" width="154" height="76"></rect>
                <path d="M48.4008789,24.7480469 C48.4008789,20.9661269 49.3523668,17.7503388 51.2553711,15.1005859 C53.1583754,12.4508331 55.9164858,11.1259766 59.5297852,11.1259766 C62.8540205,11.1259766 65.6061089,12.3123254 67.7861328,14.6850586 C69.9661567,17.0577918 71.0561523,20.5445733 71.0561523,25.1455078 C71.0561523,29.625999 69.9541126,33.0766481 67.75,35.4975586 C65.5458874,37.9184691 62.8299315,39.1289062 59.6020508,39.1289062 C56.3982587,39.1289062 53.7304794,37.9365354 51.5986328,35.5517578 C49.4667862,33.1669803 48.4008789,29.5657793 48.4008789,24.7480469 L48.4008789,24.7480469 Z M59.7104492,15.6064453 C58.0965089,15.6064453 56.7535861,16.305006 55.6816406,17.7021484 C54.6096952,19.0992908 54.0737305,21.6646949 54.0737305,25.3984375 C54.0737305,28.7949389 54.6157172,31.1857027 55.699707,32.5708008 C56.7836968,33.9558989 58.1205975,34.6484375 59.7104492,34.6484375 C61.3484782,34.6484375 62.7034452,33.9498768 63.7753906,32.5527344 C64.8473361,31.155592 65.3833008,28.6022321 65.3833008,24.8925781 C65.3833008,21.4719881 64.841314,19.0691801 63.7573242,17.684082 C62.6733344,16.298984 61.3243896,15.6064453 59.7104492,15.6064453 L59.7104492,15.6064453 Z M59.746582,66.9511719 L88.7250977,11.1259766 L94.0004883,11.1259766 L65.1303711,66.9511719 L59.746582,66.9511719 Z M82.6547852,52.5703125 C82.6547852,48.7643039 83.606273,45.5424937 85.5092773,42.9047852 C87.4122817,40.2670767 90.1824362,38.9482422 93.8198242,38.9482422 C97.1440596,38.9482422 99.896148,40.134591 102.076172,42.5073242 C104.256196,44.8800574 105.346191,48.366839 105.346191,52.9677734 C105.346191,57.4482646 104.244152,60.8989137 102.040039,63.3198242 C99.8359265,65.7407348 97.1079264,66.9511719 93.855957,66.9511719 C90.652165,66.9511719 87.9843857,65.7527789 85.8525391,63.355957 C83.7206925,60.9591352 82.6547852,57.3639563 82.6547852,52.5703125 L82.6547852,52.5703125 Z M94.0004883,43.4287109 C92.3624593,43.4287109 91.0074923,44.1272717 89.9355469,45.5244141 C88.8636014,46.9215565 88.3276367,49.4869605 88.3276367,53.2207031 C88.3276367,56.5931158 88.8696235,58.9778576 89.9536133,60.375 C91.0376031,61.7721424 92.3745038,62.4707031 93.9643555,62.4707031 C95.6264732,62.4707031 96.9934842,61.7721424 98.0654297,60.375 C99.1373752,58.9778576 99.6733398,56.4244977 99.6733398,52.7148438 C99.6733398,49.2942537 99.1313531,46.8914457 98.0473633,45.5063477 C96.9633735,44.1212496 95.6144286,43.4287109 94.0004883,43.4287109 L94.0004883,43.4287109 Z" fill="#959595" sketch:type="MSShapeGroup"></path>
            </g>
        </g>
    </g>
</svg>