<?xml version="1.0" encoding="UTF-8" standalone="no"?>
<svg width="94px" height="76px" viewBox="0 0 94 76" version="1.1" xmlns="http://www.w3.org/2000/svg" xmlns:xlink="http://www.w3.org/1999/xlink" xmlns:sketch="http://www.bohemiancoding.com/sketch/ns">
    <!-- Generator: Sketch 3.2.2 (9983) - http://www.bohemiancoding.com/sketch -->
    <title>%</title>
    <desc>Created with Sketch.</desc>
    <defs></defs>
    <g id="Page-1" stroke="none" stroke-width="1" fill="none" fill-rule="evenodd" sketch:type="MSPage">
        <g id="sharee_partner_icons" sketch:type="MSArtboardGroup" transform="translate(-209.000000, -380.000000)" fill="#959595">
            <g id="%" sketch:type="MSLayerGroup" transform="translate(256.000000, 418.000000) scale(-1, 1) translate(-256.000000, -418.000000) translate(209.000000, 380.000000)">
                <path d="M89.5013029,28.8540329 L86.5729642,28.8540329 L86.5729642,28.8540329 C84.634202,22.9632916 80.8374593,17.7337559 75.7885993,13.6863758 C75.7885993,13.506047 75.7482085,13.3056817 75.6876221,13.1053163 C74.6374593,9.41859385 75.9299674,6.03241941 77.4648208,3.6280352 C78.5351792,1.92492972 77.1416938,-0.239016075 75.1423453,0.0214588817 C68.3970684,0.862993356 64.7820847,4.14898511 62.9039088,6.91402696 C58.8648208,5.65172525 54.5026059,4.95044652 49.9586319,4.95044652 C34.0042345,4.95044652 20.3319218,13.4860105 14.6771987,25.5880777 C11.1228013,24.9469086 8.84071661,23.5844242 7.42703583,22.1017206 C9.76970684,21.0798573 11.8296417,19.6772998 12.4960912,18.3148154 C13.8895765,15.5097005 11.9104235,13.7064124 11.9104235,13.7064124 C11.9104235,13.7064124 6.21530945,8.1362556 3.71107492,16.4113446 C3.10521173,18.4149981 3.40814332,20.2583593 4.23615635,21.9013552 C2.21661238,22.7829628 0.5,23.4040953 0.5,23.4040953 C1.6713355,23.6244972 3.2465798,23.4441684 4.86221498,22.9833281 C7.02312704,26.2893564 11.0420195,28.6737041 13.1221498,29.755677 C12.3547231,32.3804631 11.9306189,35.1254684 11.9306189,37.9506198 C11.9306189,40.314931 12.213355,42.599096 12.7586319,44.8231514 L12.7586319,44.8231514 C12.7586319,44.8231514 12.7586319,44.8632244 12.7788274,44.9233341 C13.3442997,47.2275356 14.1925081,49.4315545 15.2830619,51.5153541 C16.7169381,54.580944 18.8172638,58.1875203 21.6648208,61.1128544 C25.804886,65.3405633 26.5117264,70.6101721 26.6127036,72.854264 L26.6127036,73.8360542 L26.6127036,73.9562734 L26.6127036,73.97631 L26.6127036,73.97631 C26.6934853,75.0983559 27.6224756,75.9799635 28.7736156,75.9799635 L41.9612378,75.9799635 C43.1527687,75.9799635 44.1221498,75.0182098 44.1221498,73.8360542 L44.1221498,70.6101721 C46.0407166,70.870647 47.9794788,70.9908662 49.9788274,70.9908662 C51.5338762,70.9908662 53.0687296,70.9107201 54.5833876,70.7504278 L54.5833876,73.8560907 C54.5833876,75.0382463 55.5527687,76 56.7442997,76 L69.9319218,76 C71.1234528,76 72.0928339,75.0382463 72.0928339,73.8560907 L72.0928339,70.6302086 C72.1130293,69.5482357 72.4967427,65.2804537 76.5560261,61.6338043 C76.737785,61.4935486 76.8993485,61.3332563 77.0609121,61.1930006 C77.0811075,61.172964 77.1013029,61.1529275 77.1214984,61.132891 L77.1214984,61.132891 C81.6452769,57.1255839 85.0179153,52.1364867 86.7345277,46.5663299 L89.5013029,46.5663299 C91.7026059,46.5663299 93.5,44.7830783 93.5,42.599096 L93.5,32.8212668 C93.5,30.617248 91.7026059,28.8540329 89.5013029,28.8540329 L89.5013029,28.8540329 Z M5.40749186,16.9322945 C6.53843648,12.1435626 10.8400651,14.7082391 10.6381107,17.4933175 C10.5775244,18.4951442 8.63876221,19.757446 6.47785016,20.8394189 C5.40749186,19.2164595 5.24592834,17.6536098 5.40749186,16.9322945 L5.40749186,16.9322945 Z M69.7703583,26.3093929 C69.7703583,24.5261413 71.22443,23.0835108 73.0218241,23.0835108 C74.8192182,23.0835108 76.2732899,24.5261413 76.2732899,26.3093929 C76.2732899,28.0926446 74.8192182,29.5352751 73.0218241,29.5352751 C71.22443,29.5553116 69.7703583,28.0926446 69.7703583,26.3093929 L69.7703583,26.3093929 Z M33.5397394,18.1545232 L31.176873,15.2892986 C31.2980456,15.189116 34.2263844,12.8448413 39.3156352,11.2619551 C43.9605863,9.81932455 51.432899,8.71731512 60.5814332,11.7628685 L59.3899023,15.2692621 C43.7586319,10.0797995 33.6407166,18.074377 33.5397394,18.1545232 L33.5397394,18.1545232 Z" id="Shape" sketch:type="MSShapeGroup"></path>
            </g>
        </g>
    </g>
</svg>