<svg width="150" height="110" viewBox="0 0 150 110" version="1.1" xmlns="http://www.w3.org/2000/svg" xmlns:xlink="http://www.w3.org/1999/xlink"><title>new_campaign_icon 2</title><desc>Created with Sketch.</desc><defs><ellipse id="a" cx="49.198" cy="49.107" rx="49.198" ry="49.107"/><linearGradient x1="50%" y1="0%" x2="50%" y2="100%" id="c"><stop stop-color="#4DBAA5" offset="0%"/><stop stop-color="#4AB19D" offset="100%"/></linearGradient><filter x="-50%" y="-50%" width="200%" height="200%" filterUnits="objectBoundingBox" id="d"><feOffset dx="0" dy="0" in="SourceAlpha" result="shadowOffsetOuter1"/><feGaussianBlur stdDeviation="1" in="shadowOffsetOuter1" result="shadowBlurOuter1"/><feColorMatrix values="0 0 0 0 0 0 0 0 0 0 0 0 0 0 0 0 0 0 0.14076087 0" in="shadowBlurOuter1" type="matrix" result="shadowMatrixOuter1"/><feMerge><feMergeNode in="shadowMatrixOuter1"/><feMergeNode in="SourceGraphic"/></feMerge></filter></defs><g stroke="none" stroke-width="1" fill="none" fill-rule="evenodd"><g><g><g><g><path d="M142.403 49.107h-60.78c-4.178 0-7.597 3.425-7.597 7.612v45.668c0 4.187 3.42 7.612 7.597 7.612h60.78c4.178 0 7.597-3.425 7.597-7.612v-45.67c0-4.186-3.42-7.61-7.597-7.61zm-51.283 6.66c1.573 0 2.85 1.28 2.85 2.855s-1.277 2.854-2.85 2.854c-1.573 0-2.85-1.28-2.85-2.854 0-1.576 1.277-2.855 2.85-2.855zm-10.446 2.855c0-1.576 1.276-2.855 2.85-2.855 1.57 0 2.848 1.28 2.848 2.855s-1.277 2.854-2.85 2.854c-1.572 0-2.848-1.28-2.848-2.854zm61.73 43.766h-60.78V68.136h60.78v34.252zm0-41.864H96.817V56.72h45.657l-.072 3.804z" fill="#969696"/><path d="M132.203 75.543h-9.28c-.884 0-.96.695-.96 1.555s.076 1.555.96 1.555h9.28c.883 0 .96-.695.96-1.555s-.077-1.555-.96-1.555zm-38.71 6.632v17.1h38.48v-17.1h-38.48zm8-3.44h12.482c.883 0 .96-.695.96-1.555s-.077-1.555-.96-1.555h-12.48c-.885 0-.962.695-.962 1.555s.077 1.555.96 1.555zm-5.12-3.11h-2.88c-.884 0-.96.695-.96 1.555s.076 1.555.96 1.555h2.88c.883 0 .96-.695.96-1.555s-.077-1.555-.96-1.555z" fill="#9E9E9E"/></g><g transform="translate(0 0)"><mask id="b" fill="#fff"><use xlink:href="#a"/></mask><use fill="#12597A" xlink:href="#a"/><g mask="url(#b)"><g transform="translate(12.792 29.464)"><rect fill="url(#c)" filter="url(#d)" x="0" y="0" width="133.819" height="39.286" rx="2"/><g transform="translate(9.84 6.875)"><ellipse stroke="#fff" stroke-width="2" cx="12.792" cy="12.768" rx="12.792" ry="12.768"/><path d="M17.89 7.51c0-2.002-2.076-2.184-2.93-2.184-2.35 0-4.207 1.366-4.207 3.26 0 2.676 3.732 3.787 3.732 6.9 0 1.53-.874 2.367-2.094 2.367-1.164 0-1.8-.728-1.8-1.64 0-1.255 1.164-1.765 2.165-1.765-.145-.947-.965-1.2-1.602-1.2-1.274 0-2.676 1.018-2.676 2.985 0 2.22 1.784 3.077 3.86 3.077 2.64 0 5.116-1.44 5.116-4.498 0-3.933-4.097-4.297-4.097-6.973 0-1.094.674-1.64 1.676-1.64 1 0 1.347.564 1.347 1.202 0 .6-.33 1.274-.82 1.566.236.273.51.382.837.382.91 0 1.493-.783 1.493-1.84z" fill="#fff"/></g><path d="M51.412 17.613c0 1.03-.352 1.822-1.055 2.376-.702.553-1.708.83-3.016.83h-1.196v4H44.96V14.65h2.64c2.54 0 3.812.987 3.812 2.963zm-5.268 2.192h1.065c1.047 0 1.806-.17 2.274-.508.47-.34.703-.882.703-1.628 0-.674-.22-1.175-.66-1.504-.442-.33-1.128-.494-2.06-.494h-1.323v4.133zm10.702-2.75c.338 0 .642.03.91.085l-.16 1.07c-.314-.068-.593-.103-.834-.103-.617 0-1.144.25-1.583.75-.44.502-.658 1.126-.658 1.873v4.09h-1.155v-7.625h.953l.132 1.413h.056c.283-.496.624-.88 1.023-1.148.4-.27.838-.404 1.316-.404zm8.635 3.946c0 1.245-.312 2.215-.94 2.913-.625.7-1.49 1.048-2.594 1.048-.682 0-1.287-.16-1.816-.48-.53-.32-.937-.78-1.225-1.377-.287-.6-.43-1.3-.43-2.102 0-1.242.31-2.21.93-2.903.623-.694 1.486-1.04 2.59-1.04 1.067 0 1.914.354 2.543 1.064.628.71.943 1.67.943 2.88zm-5.81 0c0 .976.196 1.718.585 2.228.39.51.963.765 1.72.765.755 0 1.33-.254 1.72-.76.393-.51.59-1.253.59-2.232 0-.968-.197-1.704-.59-2.208-.39-.503-.97-.755-1.735-.755-.756 0-1.327.25-1.712.745-.385.496-.577 1.236-.577 2.22zm11.384 3.96c-.496 0-.95-.09-1.36-.274-.41-.183-.755-.465-1.034-.846h-.083c.056.446.083.868.083 1.267v3.138h-1.155v-11.05h.94l.16 1.044h.055c.297-.418.643-.72 1.037-.905.394-.186.847-.28 1.357-.28 1.01 0 1.792.347 2.34 1.038.55.69.826 1.66.826 2.908 0 1.254-.28 2.227-.84 2.92-.558.694-1.333 1.04-2.326 1.04zm-.167-6.923c-.78 0-1.343.216-1.69.647-.35.432-.527 1.118-.537 2.06V21c0 1.073.18 1.84.536 2.3.357.463.93.693 1.72.693.658 0 1.174-.266 1.547-.8.373-.533.56-1.268.56-2.205 0-.95-.187-1.68-.56-2.19-.373-.507-.9-.76-1.576-.76zm10.04 6.784l-.23-1.084h-.055c-.38.478-.76.8-1.138.97-.378.17-.85.255-1.415.255-.758 0-1.35-.194-1.78-.584-.428-.39-.643-.944-.643-1.663 0-1.54 1.232-2.347 3.695-2.42l1.294-.043v-.473c0-.6-.13-1.04-.386-1.326-.258-.284-.67-.427-1.235-.427-.636 0-1.355.195-2.157.585l-.355-.884c.376-.204.787-.364 1.235-.48.448-.116.896-.174 1.346-.174.91 0 1.583.202 2.022.606.438.403.657 1.05.657 1.94v5.205h-.856zm-2.61-.813c.72 0 1.285-.197 1.695-.59.41-.395.616-.947.616-1.657v-.69l-1.155.05c-.918.032-1.58.175-1.986.428-.406.252-.61.646-.61 1.18 0 .417.127.734.38.952.253.218.607.327 1.06.327zm12.087-6.812v.73l-1.412.168c.13.162.246.375.348.637.102.262.153.557.153.887 0 .747-.255 1.343-.766 1.788-.51.445-1.21.668-2.1.668-.228 0-.442-.02-.64-.056-.493.26-.74.587-.74.98 0 .21.087.364.26.464.17.1.465.15.882.15h1.35c.825 0 1.46.175 1.902.523.443.347.665.853.665 1.516 0 .844-.34 1.487-1.016 1.93-.676.443-1.664.665-2.963.665-.998 0-1.766-.186-2.307-.557-.54-.37-.81-.895-.81-1.572 0-.464.148-.865.445-1.204.297-.34.714-.568 1.252-.69-.194-.087-.358-.224-.49-.41-.132-.185-.198-.4-.198-.647 0-.278.073-.52.22-.73.15-.21.384-.41.704-.606-.394-.163-.716-.44-.964-.83-.248-.388-.372-.833-.372-1.334 0-.835.25-1.48.75-1.93.502-.454 1.212-.68 2.13-.68.4 0 .76.047 1.08.14h2.636zm-6.08 8.907c0 .413.173.726.52.94.35.212.847.32 1.497.32.97 0 1.688-.146 2.154-.436.466-.29.7-.683.7-1.18 0-.412-.128-.698-.383-.858-.254-.16-.734-.24-1.44-.24h-1.384c-.524 0-.933.125-1.225.375-.29.25-.437.61-.437 1.08zm.625-6.464c0 .533.15.937.45 1.21.303.274.723.41 1.26.41 1.128 0 1.692-.546 1.692-1.64 0-1.147-.57-1.72-1.712-1.72-.543 0-.96.146-1.253.44-.292.29-.438.725-.438 1.3zM98.55 21c0 1.245-.313 2.215-.94 2.913-.626.7-1.49 1.048-2.595 1.048-.682 0-1.287-.16-1.816-.48-.527-.32-.936-.78-1.223-1.377-.288-.6-.432-1.3-.432-2.102 0-1.242.31-2.21.933-2.903.62-.694 1.484-1.04 2.588-1.04 1.067 0 1.915.354 2.543 1.064.628.71.942 1.67.942 2.88zm-5.81 0c0 .976.195 1.718.585 2.228.39.51.962.765 1.718.765s1.33-.254 1.722-.76c.392-.51.588-1.253.588-2.232 0-.968-.196-1.704-.588-2.208-.392-.503-.97-.755-1.736-.755-.755 0-1.325.25-1.71.745-.385.496-.578 1.236-.578 2.22zm9.22 3.82l-2.895-7.625h1.238l1.643 4.523c.37 1.058.59 1.744.654 2.06h.055c.05-.246.212-.755.484-1.528.272-.772.88-2.457 1.827-5.055h1.24l-2.896 7.626h-1.35zm10.158 0l-.23-1.084h-.055c-.38.478-.76.8-1.138.97-.378.17-.85.255-1.416.255-.755 0-1.347-.194-1.776-.584-.43-.39-.644-.944-.644-1.663 0-1.54 1.23-2.347 3.695-2.42l1.294-.043v-.473c0-.6-.13-1.04-.387-1.326-.258-.284-.67-.427-1.235-.427-.636 0-1.355.195-2.157.585l-.354-.884c.375-.204.787-.364 1.235-.48.448-.116.897-.174 1.347-.174.91 0 1.583.202 2.02.606.44.403.66 1.05.66 1.94v5.205h-.857zm-2.61-.813c.72 0 1.285-.197 1.695-.59.41-.395.616-.947.616-1.657v-.69l-1.154.05c-.92.032-1.58.175-1.987.428-.406.252-.61.646-.61 1.18 0 .417.127.734.38.952.253.218.606.327 1.06.327zm8.31 0c.203 0 .4-.015.59-.045.19-.03.34-.06.452-.094v.884c-.125.06-.31.11-.553.15-.244.04-.463.06-.658.06-1.475 0-2.213-.778-2.213-2.332v-4.537h-1.093v-.557l1.092-.48.486-1.628h.668v1.767h2.213v.898h-2.213v4.488c0 .46.11.813.327 1.06.22.244.518.367.9.367zm-.273-7.904c.09-.255.178-.576.268-.964.09-.388.16-.77.206-1.145h1.17v.125c-.052.237-.18.573-.383 1.01-.204.435-.415.815-.633 1.14h-.627v-.167z" fill="#fff"/></g></g></g></g></g></g></g></svg>