<svg width="128" height="24" viewBox="0 0 128 24" xmlns="http://www.w3.org/2000/svg"><title>btn</title><defs><linearGradient x1="50%" y1="0%" x2="50%" y2="100%" id="a"><stop stop-color="#DD5B4D" offset="0%"/><stop stop-color="#C24E41" offset="100%"/></linearGradient><filter x="-50%" y="-50%" width="200%" height="200%" filterUnits="objectBoundingBox" id="b"><feOffset in="SourceAlpha" result="shadowOffsetOuter1"/><feGaussianBlur stdDeviation="1" in="shadowOffsetOuter1" result="shadowBlurOuter1"/><feColorMatrix values="0 0 0 0 0 0 0 0 0 0 0 0 0 0 0 0 0 0 0.278589221 0" in="shadowBlurOuter1" result="shadowMatrixOuter1"/><feMerge><feMergeNode in="shadowMatrixOuter1"/><feMergeNode in="SourceGraphic"/></feMerge></filter></defs><g fill="none" fill-rule="evenodd"><g><g transform="translate(-734 -23) translate(736 25)"><rect fill="url(#a)" filter="url(#b)" width="124" height="20" rx="2"/><g transform="translate(6 4)"><ellipse stroke="#fff" cx="5.904" cy="5.893" rx="5.904" ry="5.893"/><path fill="#fff" d="M5.5 0h1v2h-1z"/><path fill="#fff" d="M5.5 10h1v2h-1z"/><path d="M7.84 3.268c0-1.364-1.408-1.507-1.914-1.507-1.144 0-2.21.75-2.21 2.223 0 2.552 3.222 1.595 3.222 4.048 0 .97-.495 1.497-1.166 1.497-.572 0-1.364-.385-1.364-1.177 0-.374.176-.935.88-.968-.176-.484-.396-.627-.715-.627-.792 0-1.2.88-1.2 1.606 0 1.255 1.2 1.772 2.333 1.772 1.287 0 2.563-.66 2.563-2.43 0-2.938-3.488-2.08-3.488-4.214 0-.737.418-1.33 1.188-1.33.737 0 1.056.538 1.056 1.044 0 .308-.12.616-.32.76.144.153.276.23.474.23.396 0 .66-.34.66-.924z" fill="#fff"/></g><path d="M23.13 14v-1.564l4.51-5.573h-4V5.41h6.286v1.348l-4.705 5.795h4.887V14H23.13zm13.768 0h-1.53v-.914c-.253.355-.553.62-.898.794-.346.174-.695.26-1.046.26-.715 0-1.327-.287-1.837-.864-.51-.576-.765-1.38-.765-2.41 0-1.055.248-1.857.744-2.406.497-.55 1.123-.823 1.88-.823.697 0 1.298.29 1.806.867V5.41h1.646V14zm-4.394-3.246c0 .664.092 1.144.275 1.44.265.43.636.646 1.113.646.378 0 .7-.16.966-.484.265-.322.398-.803.398-1.444 0-.715-.13-1.23-.387-1.544-.257-.314-.587-.472-.99-.472-.39 0-.717.156-.98.466-.264.31-.396.775-.396 1.392zm6.017-3.82V5.41h1.648v1.524H38.52zm0 7.066V7.777h1.648V14H38.52zm6.94-1.98l1.64.275c-.21.6-.544 1.06-1 1.374-.454.313-1.024.47-1.707.47-1.082 0-1.883-.353-2.403-1.06-.41-.566-.615-1.28-.615-2.144 0-1.032.27-1.84.81-2.423.538-.584 1.22-.876 2.044-.876.924 0 1.655.305 2.19.917.535.61.79 1.548.767 2.81h-4.124c.01.488.144.867.398 1.14.255.27.57.406.95.406.258 0 .475-.07.65-.21.176-.14.31-.368.4-.68zm.093-1.665c-.012-.476-.135-.838-.37-1.086-.234-.25-.52-.374-.855-.374-.36 0-.656.13-.89.393-.235.26-.35.616-.346 1.065h2.46zM50.78 5.41h1.482v1.06c0 .438-.04.782-.117 1.032-.08.25-.223.473-.434.668-.21.195-.464.346-.76.45l-.294-.614c.297-.098.51-.235.642-.41.13-.176.196-.41.196-.703h-.715V5.41zM48.54 14V5.41h1.648V14H48.54zm5.843-4.324l-1.494-.27c.167-.6.456-1.047.866-1.336.41-.29 1.02-.433 1.828-.433.734 0 1.28.087 1.64.26.36.174.613.395.76.663.146.267.22.758.22 1.473l-.018 1.922c0 .547.026.95.08 1.21.05.26.15.538.295.835h-1.628c-.043-.11-.096-.27-.16-.486-.026-.098-.045-.162-.057-.194-.28.274-.582.48-.903.616-.32.136-.662.205-1.025.205-.64 0-1.145-.173-1.515-.52-.37-.35-.553-.788-.553-1.32 0-.35.083-.664.25-.94.17-.275.404-.486.707-.632.302-.147.74-.275 1.31-.384.77-.145 1.302-.28 1.6-.405v-.165c0-.316-.08-.542-.235-.676-.157-.136-.452-.204-.885-.204-.293 0-.522.058-.686.173-.163.115-.296.317-.397.606zm2.203 1.336c-.21.07-.545.154-1.002.252-.457.097-.756.193-.897.287-.214.153-.322.346-.322.58 0 .23.086.43.258.6.172.166.39.25.656.25.296 0 .58-.097.85-.293.198-.148.33-.33.39-.544.044-.14.066-.41.066-.803v-.328zm3.205-4.078V5.41h1.648v1.524H59.79zm1.648.843v6.03c0 .793-.052 1.352-.156 1.678-.103.327-.303.58-.597.765-.295.184-.67.275-1.128.275-.164 0-.34-.014-.53-.044-.19-.028-.394-.072-.613-.13l.287-1.407c.08.016.153.03.22.038.07.01.133.016.19.016.17 0 .307-.036.414-.108.108-.073.18-.16.214-.26.035-.103.053-.407.053-.915V7.777h1.648zm6.287 1.9l-1.495-.27c.168-.602.457-1.048.868-1.337.41-.29 1.02-.433 1.828-.433.734 0 1.28.087 1.64.26.36.174.613.395.76.663.146.267.22.758.22 1.473l-.02 1.922c0 .547.028.95.08 1.21.053.26.152.538.296.835h-1.63c-.042-.11-.094-.27-.157-.486-.027-.098-.047-.162-.058-.194-.282.274-.582.48-.903.616-.32.136-.662.205-1.025.205-.642 0-1.147-.173-1.516-.52-.37-.35-.553-.788-.553-1.32 0-.35.085-.664.252-.94.168-.275.404-.486.707-.632.3-.147.738-.275 1.308-.384.77-.145 1.303-.28 1.6-.405v-.165c0-.316-.078-.542-.235-.676-.156-.136-.45-.204-.884-.204-.294 0-.523.058-.687.173-.164.115-.297.317-.398.606zm2.203 1.335c-.21.07-.545.154-1.002.252-.457.097-.756.193-.897.287-.216.153-.323.346-.323.58 0 .23.086.43.258.6.172.166.39.25.656.25.298 0 .58-.097.85-.293.2-.148.33-.33.393-.544.043-.14.065-.41.065-.803v-.328zM75.84 14v-1.283l2.332-2.678c.383-.438.666-.75.85-.933-.192.012-.444.02-.756.024l-2.198.013V7.777h5.145v1.166l-2.38 2.743-.837.908c.457-.028.74-.04.85-.04h2.55V14H75.84zm7.892-4.324l-1.494-.27c.168-.6.457-1.047.867-1.336.41-.29 1.02-.433 1.83-.433.733 0 1.28.087 1.64.26.36.174.612.395.758.663.146.267.22.758.22 1.473l-.018 1.922c0 .547.027.95.08 1.21.052.26.15.538.295.835h-1.63c-.042-.11-.094-.27-.157-.486-.027-.098-.047-.162-.06-.194-.28.274-.58.48-.9.616-.32.136-.663.205-1.026.205-.64 0-1.146-.173-1.515-.52-.37-.35-.554-.788-.554-1.32 0-.35.084-.664.252-.94.168-.275.404-.486.706-.632.303-.147.74-.275 1.31-.384.77-.145 1.303-.28 1.6-.405v-.165c0-.316-.08-.542-.235-.676-.155-.136-.45-.204-.884-.204-.293 0-.52.058-.685.173-.163.115-.296.317-.398.606zm2.204 1.336c-.21.07-.545.154-1.002.252-.457.097-.756.193-.897.287-.215.153-.322.346-.322.58 0 .23.086.43.258.6.172.166.39.25.656.25.296 0 .58-.097.85-.293.198-.148.33-.33.39-.544.044-.14.066-.41.066-.803v-.328zM90.752 14h-1.647V7.777h1.53v.885c.26-.418.497-.693.706-.826.21-.133.447-.2.713-.2.375 0 .736.104 1.084.31l-.51 1.437c-.277-.18-.535-.27-.773-.27-.23 0-.426.064-.586.19-.16.128-.287.357-.378.69-.092.33-.138 1.027-.138 2.085V14zm4.324-4.324l-1.494-.27c.168-.6.457-1.047.867-1.336.41-.29 1.02-.433 1.827-.433.735 0 1.282.087 1.64.26.36.174.613.395.76.663.146.267.22.758.22 1.473l-.018 1.922c0 .547.025.95.078 1.21s.15.538.296.835h-1.63c-.042-.11-.095-.27-.157-.486-.028-.098-.047-.162-.06-.194-.28.274-.58.48-.9.616-.32.136-.663.205-1.027.205-.64 0-1.145-.173-1.514-.52-.37-.35-.554-.788-.554-1.32 0-.35.084-.664.252-.94.168-.275.403-.486.706-.632.303-.147.74-.275 1.31-.384.77-.145 1.302-.28 1.6-.405v-.165c0-.316-.08-.542-.235-.676-.156-.136-.45-.204-.885-.204-.293 0-.52.058-.685.173-.164.115-.297.317-.4.606zm2.203 1.336c-.212.07-.546.154-1.003.252-.457.097-.756.193-.896.287-.214.153-.32.346-.32.58 0 .23.085.43.256.6.172.166.39.25.657.25.297 0 .58-.097.85-.293.198-.148.33-.33.392-.544.043-.14.064-.41.064-.803v-.328zm-1.782-3.996l.81-1.752h1.844l-1.61 1.752h-1.044zm4.95 6.984V5.41h1.648v3.094c.508-.578 1.11-.867 1.804-.867.758 0 1.385.274 1.88.823.497.55.745 1.337.745 2.364 0 1.063-.253 1.88-.758 2.455-.506.574-1.12.86-1.843.86-.356 0-.706-.088-1.052-.266-.346-.178-.643-.44-.893-.788V14h-1.53zm1.636-3.246c0 .644.102 1.12.305 1.43.284.437.663.656 1.135.656.364 0 .673-.155.93-.466.255-.31.383-.8.383-1.468 0-.71-.13-1.223-.387-1.538-.257-.314-.587-.472-.99-.472-.394 0-.722.154-.983.46-.262.307-.393.773-.393 1.398zm6.996-1.078l-1.494-.27c.168-.6.457-1.047.867-1.336.41-.29 1.02-.433 1.828-.433.736 0 1.282.087 1.642.26.36.174.612.395.76.663.145.267.218.758.218 1.473l-.017 1.922c0 .547.026.95.08 1.21.052.26.15.538.295.835h-1.63c-.042-.11-.095-.27-.157-.486-.027-.098-.046-.162-.058-.194-.28.274-.582.48-.902.616-.32.136-.662.205-1.026.205-.64 0-1.145-.173-1.514-.52-.37-.35-.554-.788-.554-1.32 0-.35.084-.664.252-.94.168-.275.403-.486.706-.632.303-.147.74-.275 1.31-.384.77-.145 1.302-.28 1.6-.405v-.165c0-.316-.08-.542-.235-.676-.157-.136-.452-.204-.886-.204-.293 0-.52.058-.685.173-.166.115-.298.317-.4.606zm2.203 1.336c-.21.07-.545.154-1.002.252-.456.097-.755.193-.895.287-.215.153-.323.346-.323.58 0 .23.086.43.258.6.172.166.39.25.657.25.296 0 .58-.097.85-.293.198-.148.33-.33.392-.544.042-.14.063-.41.063-.803v-.328zm3.205-4.078V5.41h1.647v1.524h-1.647zm1.647.843v6.03c0 .793-.052 1.352-.156 1.678-.104.327-.303.58-.598.765-.295.184-.67.275-1.128.275-.164 0-.34-.014-.53-.044-.19-.028-.394-.072-.613-.13l.288-1.407c.08.016.152.03.22.038.07.01.132.016.19.016.17 0 .306-.036.414-.108.107-.073.178-.16.214-.26.035-.103.052-.407.052-.915V7.777h1.647z" fill="#fff"/></g></g></g></svg>