<svg width="115" height="24" viewBox="0 0 115 24" xmlns="http://www.w3.org/2000/svg"><title>btn 2</title><desc>Created with Sketch.</desc><defs><linearGradient x1="50%" y1="0%" x2="50%" y2="100%" id="a"><stop stop-color="#DD5B4D" offset="0%"/><stop stop-color="#C24E41" offset="100%"/></linearGradient><filter x="-50%" y="-50%" width="200%" height="200%" filterUnits="objectBoundingBox" id="b"><feOffset in="SourceAlpha" result="shadowOffsetOuter1"/><feGaussianBlur stdDeviation="1" in="shadowOffsetOuter1" result="shadowBlurOuter1"/><feColorMatrix values="0 0 0 0 0 0 0 0 0 0 0 0 0 0 0 0 0 0 0.278589221 0" in="shadowBlurOuter1" result="shadowMatrixOuter1"/><feMerge><feMergeNode in="shadowMatrixOuter1"/><feMergeNode in="SourceGraphic"/></feMerge></filter></defs><g fill="none" fill-rule="evenodd"><g><g transform="translate(-734 -23) translate(736 25)"><rect fill="url(#a)" filter="url(#b)" width="111" height="20" rx="2"/><g transform="translate(6 4)"><ellipse stroke="#fff" cx="5.904" cy="5.893" rx="5.904" ry="5.893"/><path fill="#fff" d="M5.5 0h1v2h-1z"/><path fill="#fff" d="M5.5 10h1v2h-1z"/><path d="M7.84 3.268c0-1.364-1.408-1.507-1.914-1.507-1.144 0-2.21.75-2.21 2.223 0 2.552 3.222 1.595 3.222 4.048 0 .97-.495 1.497-1.166 1.497-.572 0-1.364-.385-1.364-1.177 0-.374.176-.935.88-.968-.176-.484-.396-.627-.715-.627-.792 0-1.2.88-1.2 1.606 0 1.255 1.2 1.772 2.333 1.772 1.287 0 2.563-.66 2.563-2.43 0-2.938-3.488-2.08-3.488-4.214 0-.737.418-1.33 1.188-1.33.737 0 1.056.538 1.056 1.044 0 .308-.12.616-.32.76.144.153.276.23.474.23.396 0 .66-.34.66-.924z" fill="#fff"/></g><path d="M24.397 11.438l1.547-.15c.093.52.282.9.567 1.144.286.243.67.365 1.153.365.512 0 .898-.108 1.158-.325.26-.217.39-.47.39-.76 0-.186-.055-.345-.164-.475-.11-.13-.3-.245-.572-.34-.186-.066-.61-.18-1.273-.345-.85-.212-1.45-.47-1.793-.78-.483-.432-.725-.96-.725-1.584 0-.4.114-.776.34-1.125.23-.35.556-.615.984-.797.428-.183.945-.274 1.55-.274.988 0 1.732.216 2.23.65.5.433.763 1.01.788 1.734l-1.59.07c-.068-.404-.214-.695-.437-.873-.224-.177-.56-.265-1.007-.265-.462 0-.824.095-1.085.284-.17.122-.253.285-.253.49 0 .185.08.345.236.477.2.167.688.343 1.46.525.775.183 1.347.372 1.717.567.37.195.66.462.87.8.21.34.315.757.315 1.255 0 .45-.126.873-.376 1.267-.25.394-.605.687-1.064.878-.458.192-1.03.288-1.713.288-.995 0-1.76-.23-2.293-.69-.534-.46-.853-1.13-.957-2.012zM37.357 14h-1.4v-.838c-.234.326-.51.57-.825.728-.317.16-.637.24-.96.24-.654 0-1.216-.265-1.683-.793-.468-.528-.702-1.265-.702-2.21 0-.967.227-1.702.682-2.205.455-.503 1.03-.755 1.724-.755.638 0 1.19.265 1.655.795V6.126h1.508V14zm-4.027-2.976c0 .61.084 1.05.252 1.322.244.394.584.59 1.02.59.348 0 .643-.147.887-.443.242-.295.364-.736.364-1.324 0-.656-.118-1.128-.354-1.416-.237-.288-.54-.432-.908-.432-.358 0-.658.142-.9.427-.242.283-.362.71-.362 1.274zM38.846 14V8.296h1.51V14h-1.51zm-.113-6.402l.74-1.606h1.693L39.69 7.598h-.957zM41.903 14V6.126h1.508V14h-1.508zm6.358-1.815l1.505.252c-.193.55-.498.97-.916 1.26-.418.288-.94.432-1.566.432-.992 0-1.726-.325-2.202-.973-.376-.52-.564-1.175-.564-1.966 0-.944.247-1.685.74-2.22.495-.535 1.12-.803 1.875-.803.85 0 1.52.28 2.01.84.49.56.724 1.42.703 2.576h-3.782c.01.448.133.796.366 1.045.232.25.522.373.87.373.236 0 .435-.063.596-.192.16-.13.283-.337.365-.623zm.087-1.526c-.01-.438-.123-.77-.338-.997-.216-.228-.477-.34-.785-.34-.33 0-.602.12-.817.36-.215.24-.32.564-.317.976h2.257zm2.696-3.138V6.126h1.51v1.396h-1.51zm1.51.774v5.527c0 .727-.048 1.24-.143 1.54-.094.298-.277.53-.547.7-.27.168-.615.252-1.034.252-.152 0-.314-.013-.487-.04-.174-.027-.36-.067-.562-.12l.264-1.29c.072.014.14.026.202.035.063.01.12.013.174.013.154 0 .28-.033.38-.1.098-.066.163-.145.195-.238s.048-.373.048-.838v-5.44h1.51zm5.763 1.74l-1.37-.247c.154-.552.42-.96.795-1.226.377-.265.936-.397 1.677-.397.673 0 1.174.08 1.504.24.33.158.562.36.696.606.135.245.202.695.202 1.35l-.016 1.762c0 .502.024.87.072 1.11.05.238.14.493.272.765h-1.494c-.04-.1-.087-.25-.145-.446-.025-.09-.043-.148-.053-.177-.258.25-.534.44-.828.564-.293.126-.606.19-.94.19-.587 0-1.05-.16-1.388-.48-.338-.318-.507-.72-.507-1.208 0-.322.078-.61.23-.862.155-.252.37-.445.65-.58.276-.134.676-.25 1.2-.352.705-.132 1.193-.256 1.465-.37v-.15c0-.29-.07-.497-.214-.62-.143-.124-.413-.186-.81-.186-.27 0-.478.053-.63.158-.15.106-.27.29-.364.556zm2.02 1.225c-.194.065-.5.142-.92.232-.418.09-.692.177-.82.263-.198.14-.296.317-.296.532 0 .21.08.394.236.547.158.154.358.23.602.23.272 0 .53-.088.78-.267.18-.136.3-.303.358-.5.04-.13.06-.374.06-.735v-.3zM67.93 14l-2.3-5.704h1.586l1.074 2.91.312.973c.082-.248.134-.41.155-.49.05-.16.104-.322.16-.483l1.086-2.91h1.553L69.29 14h-1.36zm3.835-5.704h1.606l1.365 4.05 1.332-4.05h1.563l-2.014 5.49-.36.993c-.132.332-.258.586-.378.762-.12.175-.258.317-.414.427-.156.108-.347.193-.575.254-.228.06-.485.09-.77.09-.29 0-.576-.03-.855-.09l-.135-1.182c.237.047.45.07.64.07.35 0 .61-.103.778-.31.17-.205.298-.467.387-.786l-2.17-5.72zM83.83 14h-1.403v-.838c-.233.326-.508.57-.825.728-.317.16-.636.24-.958.24-.656 0-1.217-.265-1.684-.793-.468-.528-.7-1.265-.7-2.21 0-.967.226-1.702.68-2.205.456-.503 1.03-.755 1.725-.755.637 0 1.19.265 1.654.795V6.126h1.51V14zm-4.03-2.976c0 .61.084 1.05.253 1.322.243.394.583.59 1.02.59.348 0 .643-.147.886-.443.243-.295.365-.736.365-1.324 0-.656-.118-1.128-.355-1.416-.236-.288-.54-.432-.907-.432-.36 0-.658.142-.9.427-.242.283-.363.71-.363 1.274zm8.82 1.16l1.504.253c-.194.55-.5.97-.916 1.26-.417.288-.94.432-1.566.432-.992 0-1.726-.325-2.202-.973-.376-.52-.564-1.175-.564-1.966 0-.944.247-1.685.74-2.22.495-.535 1.12-.803 1.876-.803.848 0 1.518.28 2.008.84.49.56.726 1.42.704 2.576h-3.78c.01.448.13.796.364 1.045.233.25.523.373.87.373.237 0 .435-.063.596-.192.162-.13.283-.337.366-.623zm.086-1.525c-.01-.438-.124-.77-.34-.997-.214-.228-.475-.34-.783-.34-.33 0-.602.12-.816.36-.215.24-.32.564-.317.976h2.256zM85.72 5.99h1.218l.58.8.624-.8h1.213l-1.11 1.584h-1.398L85.72 5.992zM91.433 14V6.126h1.51V14h-1.51zm6.36-1.815l1.503.252c-.193.55-.498.97-.915 1.26-.418.288-.94.432-1.566.432-.992 0-1.726-.325-2.202-.973-.376-.52-.564-1.175-.564-1.966 0-.944.247-1.685.74-2.22.495-.535 1.12-.803 1.876-.803.848 0 1.518.28 2.008.84.49.56.725 1.42.704 2.576h-3.78c.01.448.13.796.364 1.045.233.25.523.373.87.373.236 0 .435-.063.596-.192.16-.13.283-.337.365-.623zm.085-1.526c-.01-.438-.124-.77-.34-.997-.214-.228-.475-.34-.783-.34-.33 0-.602.12-.817.36-.214.24-.32.564-.316.976h2.255zm2.696-3.138V6.126h1.51v1.396h-1.51zm1.51.774v5.527c0 .727-.048 1.24-.143 1.54-.095.298-.278.53-.548.7-.27.168-.615.252-1.034.252-.15 0-.312-.013-.485-.04-.174-.027-.36-.067-.562-.12l.264-1.29c.07.014.138.026.2.035.064.01.122.013.176.013.154 0 .28-.033.378-.1.1-.066.165-.145.197-.238.033-.093.05-.373.05-.838v-5.44h1.508z" fill="#fff"/></g></g></g></svg>