<svg width="115" height="24" viewBox="0 0 115 24" xmlns="http://www.w3.org/2000/svg"><title>btn 3</title><desc>Created with Sketch.</desc><defs><linearGradient x1="50%" y1="0%" x2="50%" y2="100%" id="a"><stop stop-color="#DD5B4D" offset="0%"/><stop stop-color="#C24E41" offset="100%"/></linearGradient><filter x="-50%" y="-50%" width="200%" height="200%" filterUnits="objectBoundingBox" id="b"><feOffset in="SourceAlpha" result="shadowOffsetOuter1"/><feGaussianBlur stdDeviation="1" in="shadowOffsetOuter1" result="shadowBlurOuter1"/><feColorMatrix values="0 0 0 0 0 0 0 0 0 0 0 0 0 0 0 0 0 0 0.278589221 0" in="shadowBlurOuter1" result="shadowMatrixOuter1"/><feMerge><feMergeNode in="shadowMatrixOuter1"/><feMergeNode in="SourceGraphic"/></feMerge></filter></defs><g fill="none" fill-rule="evenodd"><g><g transform="translate(-734 -23) translate(736 25)"><rect fill="url(#a)" filter="url(#b)" width="111" height="20" rx="2"/><g transform="translate(6 4)"><ellipse stroke="#fff" cx="5.904" cy="5.893" rx="5.904" ry="5.893"/><path fill="#fff" d="M5.5 0h1v2h-1z"/><path fill="#fff" d="M5.5 10h1v2h-1z"/><path d="M7.84 3.268c0-1.364-1.408-1.507-1.914-1.507-1.144 0-2.21.75-2.21 2.223 0 2.552 3.222 1.595 3.222 4.048 0 .97-.495 1.497-1.166 1.497-.572 0-1.364-.385-1.364-1.177 0-.374.176-.935.88-.968-.176-.484-.396-.627-.715-.627-.792 0-1.2.88-1.2 1.606 0 1.255 1.2 1.772 2.333 1.772 1.287 0 2.563-.66 2.563-2.43 0-2.938-3.488-2.08-3.488-4.214 0-.737.418-1.33 1.188-1.33.737 0 1.056.538 1.056 1.044 0 .308-.12.616-.32.76.144.153.276.23.474.23.396 0 .66-.34.66-.924z" fill="#fff"/></g><path d="M24.397 11.438l1.547-.15c.093.52.282.9.567 1.144.286.243.67.365 1.153.365.512 0 .898-.108 1.158-.325.26-.217.39-.47.39-.76 0-.186-.055-.345-.164-.475-.11-.13-.3-.245-.572-.34-.186-.066-.61-.18-1.273-.345-.85-.212-1.45-.47-1.793-.78-.483-.432-.725-.96-.725-1.584 0-.4.114-.776.34-1.125.23-.35.556-.615.984-.797.428-.183.945-.274 1.55-.274.988 0 1.732.216 2.23.65.5.433.763 1.01.788 1.734l-1.59.07c-.068-.404-.214-.695-.437-.873-.224-.177-.56-.265-1.007-.265-.462 0-.824.095-1.085.284-.17.122-.253.285-.253.49 0 .185.08.345.236.477.2.167.688.343 1.46.525.775.183 1.347.372 1.717.567.37.195.66.462.87.8.21.34.315.757.315 1.255 0 .45-.126.873-.376 1.267-.25.394-.605.687-1.064.878-.458.192-1.03.288-1.713.288-.995 0-1.76-.23-2.293-.69-.534-.46-.853-1.13-.957-2.012zm9.233-5.312V9.02c.487-.568 1.07-.853 1.746-.853.347 0 .66.064.94.193.28.13.49.294.63.494.142.2.24.423.29.667.053.244.08.622.08 1.134V14h-1.51v-3.013c0-.598-.03-.978-.086-1.14-.058-.16-.16-.288-.304-.383-.145-.095-.326-.142-.545-.142-.25 0-.473.06-.67.182-.197.122-.34.306-.433.55-.09.246-.137.61-.137 1.09V14h-1.51V6.126h1.51zm6.344 3.91l-1.37-.247c.154-.552.42-.96.795-1.226.375-.265.933-.397 1.675-.397.673 0 1.174.08 1.504.24.328.158.56.36.694.606.134.245.202.695.202 1.35l-.017 1.762c0 .502.024.87.072 1.11.048.238.14.493.27.765H42.31c-.04-.1-.088-.25-.145-.446-.025-.09-.043-.148-.054-.177-.256.25-.532.44-.826.564-.293.126-.607.19-.94.19-.587 0-1.05-.16-1.388-.48-.34-.318-.508-.72-.508-1.208 0-.322.077-.61.23-.862.155-.252.37-.445.648-.58.278-.134.678-.25 1.2-.352.706-.132 1.195-.256 1.467-.37v-.15c0-.29-.07-.497-.215-.62-.143-.124-.413-.186-.81-.186-.27 0-.48.053-.63.158-.15.106-.27.29-.364.556zm2.02 1.225c-.194.065-.5.142-.92.232-.418.09-.692.177-.82.263-.198.14-.296.317-.296.532 0 .21.078.394.236.547.157.154.358.23.6.23.274 0 .533-.088.78-.267.183-.136.303-.303.36-.5.04-.13.06-.374.06-.735v-.3zM46.407 14h-1.51V8.296h1.403v.81c.24-.382.456-.635.648-.756.192-.122.41-.183.653-.183.344 0 .676.095.994.285l-.467 1.316c-.254-.165-.49-.247-.71-.247-.21 0-.39.06-.536.175-.146.116-.26.327-.346.63-.084.306-.126.943-.126 1.913V14zm6.14-1.815l1.503.252c-.192.55-.497.97-.915 1.26-.417.288-.94.432-1.565.432-.992 0-1.726-.325-2.202-.973-.376-.52-.564-1.175-.564-1.966 0-.944.247-1.685.74-2.22.495-.535 1.12-.803 1.875-.803.848 0 1.518.28 2.008.84.49.56.725 1.42.704 2.576h-3.78c.01.448.13.796.364 1.045.233.25.523.373.87.373.236 0 .435-.063.596-.192.16-.13.283-.337.365-.623zm.085-1.526c-.01-.438-.123-.77-.338-.997-.215-.228-.476-.34-.784-.34-.33 0-.6.12-.816.36-.215.24-.32.564-.317.976h2.256zm6.913-.624l-1.37-.247c.154-.552.42-.96.795-1.226.377-.265.936-.397 1.677-.397.673 0 1.174.08 1.504.24.33.158.562.36.696.606.135.245.202.695.202 1.35l-.016 1.762c0 .502.024.87.072 1.11.05.238.14.493.27.765h-1.492c-.04-.1-.087-.25-.145-.446-.025-.09-.043-.148-.053-.177-.258.25-.534.44-.828.564-.293.126-.606.19-.94.19-.587 0-1.05-.16-1.388-.48-.338-.318-.507-.72-.507-1.208 0-.322.077-.61.23-.862.155-.252.37-.445.65-.58.276-.134.676-.25 1.2-.352.705-.132 1.193-.256 1.465-.37v-.15c0-.29-.07-.497-.214-.62-.143-.124-.413-.186-.81-.186-.27 0-.478.053-.63.158-.15.106-.27.29-.364.556zm2.02 1.225c-.194.065-.5.142-.92.232-.418.09-.692.177-.82.263-.198.14-.296.317-.296.532 0 .21.08.394.236.547.158.154.358.23.602.23.272 0 .53-.088.778-.267.183-.136.303-.303.36-.5.04-.13.06-.374.06-.735v-.3zM69.723 14h-1.51v-2.91c0-.617-.03-1.015-.096-1.196-.064-.18-.17-.322-.314-.422-.145-.1-.32-.15-.524-.15-.26 0-.496.07-.703.215-.208.143-.35.333-.427.57-.077.235-.116.672-.116 1.31V14h-1.51V8.296h1.403v.838c.497-.645 1.124-.967 1.88-.967.333 0 .637.06.913.18.275.12.484.273.625.46.142.185.24.397.296.633.056.236.084.575.084 1.015V14zm6.762 0h-1.402v-.838c-.232.326-.507.57-.824.728-.317.16-.636.24-.96.24-.654 0-1.215-.265-1.683-.793-.467-.528-.7-1.265-.7-2.21 0-.967.227-1.702.682-2.205.453-.503 1.028-.755 1.723-.755.637 0 1.19.265 1.654.795V6.126h1.51V14zm-4.028-2.976c0 .61.084 1.05.252 1.322.244.394.584.59 1.02.59.348 0 .644-.147.887-.443.244-.295.365-.736.365-1.324 0-.656-.118-1.128-.354-1.416-.236-.288-.54-.432-.908-.432-.358 0-.658.142-.9.427-.24.283-.362.71-.362 1.274zm11.875 1.16l1.504.253c-.193.55-.498.97-.915 1.26-.418.288-.94.432-1.566.432-.992 0-1.726-.325-2.202-.973-.376-.52-.564-1.175-.564-1.966 0-.944.247-1.685.74-2.22.495-.535 1.12-.803 1.876-.803.848 0 1.518.28 2.008.84.49.56.725 1.42.704 2.576h-3.78c.01.448.13.796.364 1.045.233.25.523.373.87.373.236 0 .435-.063.596-.192.16-.13.283-.337.365-.623zm.086-1.525c-.01-.438-.124-.77-.34-.997-.214-.228-.475-.34-.783-.34-.33 0-.602.12-.817.36-.214.24-.32.564-.316.976h2.255zm3.856-.624l-1.37-.247c.154-.552.42-.96.795-1.226.377-.265.936-.397 1.677-.397.673 0 1.174.08 1.504.24.33.158.562.36.696.606.135.245.202.695.202 1.35l-.016 1.762c0 .502.024.87.072 1.11.05.238.14.493.27.765h-1.492c-.04-.1-.087-.25-.145-.446-.025-.09-.043-.148-.053-.177-.258.25-.534.44-.828.564-.293.126-.607.19-.94.19-.587 0-1.05-.16-1.388-.48-.338-.318-.508-.72-.508-1.208 0-.322.077-.61.23-.862.155-.252.37-.445.65-.58.276-.134.676-.25 1.2-.352.705-.132 1.193-.256 1.465-.37v-.15c0-.29-.07-.497-.214-.62-.143-.124-.413-.186-.81-.186-.27 0-.478.053-.63.158-.15.106-.27.29-.364.556zm2.02 1.225c-.194.065-.5.142-.92.232-.418.09-.692.177-.82.263-.198.14-.296.317-.296.532 0 .21.08.394.236.547.158.154.358.23.602.23.272 0 .53-.088.778-.267.183-.136.303-.303.36-.5.04-.13.06-.374.06-.735v-.3zM94.71 14H93.2V8.296h1.403v.81c.24-.382.456-.635.647-.756.192-.122.41-.183.653-.183.344 0 .675.095.993.285l-.467 1.316c-.255-.165-.49-.247-.71-.247-.21 0-.39.06-.537.175-.147.116-.262.327-.346.63-.084.306-.127.943-.127 1.913V14zm8.025 0h-1.51v-2.91c0-.617-.032-1.015-.096-1.196-.066-.18-.17-.322-.315-.422-.145-.1-.32-.15-.524-.15-.26 0-.495.07-.703.215-.207.143-.35.333-.427.57-.077.235-.115.672-.115 1.31V14h-1.51V8.296h1.403v.838c.497-.645 1.124-.967 1.88-.967.332 0 .637.06.912.18.276.12.485.273.626.46.142.185.24.397.296.633.055.236.083.575.083 1.015V14z" fill="#fff"/></g></g></g></svg>